<?xml version="1.0" encoding="UTF-8"?>
<svg id="uuid-64b77e79-61b0-4ba8-ad3b-0bc50d198c62" data-name="图层 2" xmlns="http://www.w3.org/2000/svg" viewBox="0 0 186.095 190.674">
  <defs>
    <style>
      .uuid-2b123dc0-368b-45ba-8e93-6ea97c1916e7 {
        stroke: #000;
      }

      .uuid-2b123dc0-368b-45ba-8e93-6ea97c1916e7, .uuid-0152606c-ae6d-41dc-9e5f-681936e9d853, .uuid-1b04f340-9b7a-49ac-af88-a7dfff52117c, .uuid-ebda23db-45d2-45f4-818b-828e616caecf, .uuid-fb8a06cb-2ac3-4e84-9a31-cadfc0258e31 {
        fill: none;
        stroke-miterlimit: 8;
      }

      .uuid-2b123dc0-368b-45ba-8e93-6ea97c1916e7, .uuid-1b04f340-9b7a-49ac-af88-a7dfff52117c, .uuid-ebda23db-45d2-45f4-818b-828e616caecf, .uuid-fb8a06cb-2ac3-4e84-9a31-cadfc0258e31 {
        stroke-width: .875px;
      }

      .uuid-30a0a51d-a32d-4c6d-ac57-1fc4a8b3a4eb {
        fill: #ed7c31;
      }

      .uuid-30a0a51d-a32d-4c6d-ac57-1fc4a8b3a4eb, .uuid-d8cf1796-1d1e-4dac-afda-7d8ae6c94c8f, .uuid-b8d6e64c-4bc1-4129-a003-631d18a97f0e, .uuid-b199623d-98ef-4b63-8296-7bebddbaa580, .uuid-bd8b90e1-22c7-40c3-9b2f-a4eeb66a4fa6, .uuid-26271300-8b1a-43bd-bf1f-7a81de8730e2, .uuid-e4f2c373-0a91-4ff5-bc59-5c0610a029d6 {
        stroke-width: 0px;
      }

      .uuid-0152606c-ae6d-41dc-9e5f-681936e9d853 {
        stroke: #7f7f7f;
        stroke-width: .547px;
      }

      .uuid-b8d6e64c-4bc1-4129-a003-631d18a97f0e {
        fill: #548335;
      }

      .uuid-b199623d-98ef-4b63-8296-7bebddbaa580 {
        fill: #7e7e7e;
      }

      .uuid-bd8b90e1-22c7-40c3-9b2f-a4eeb66a4fa6 {
        fill: #fff;
        fill-rule: evenodd;
      }

      .uuid-26271300-8b1a-43bd-bf1f-7a81de8730e2 {
        fill: #0070c0;
      }

      .uuid-1b04f340-9b7a-49ac-af88-a7dfff52117c {
        stroke: #548235;
      }

      .uuid-ebda23db-45d2-45f4-818b-828e616caecf {
        stroke: #4472c4;
      }

      .uuid-ebda23db-45d2-45f4-818b-828e616caecf, .uuid-fb8a06cb-2ac3-4e84-9a31-cadfc0258e31 {
        stroke-dasharray: 0 0 3.499 2.624;
      }

      .uuid-e4f2c373-0a91-4ff5-bc59-5c0610a029d6 {
        fill: #c00000;
      }

      .uuid-fb8a06cb-2ac3-4e84-9a31-cadfc0258e31 {
        stroke: #ed7d31;
      }
    </style>
  </defs>
  <g id="uuid-b7b13cb6-145f-443b-9cfe-10b33ad82457" data-name="图层 1">
    <path class="uuid-2b123dc0-368b-45ba-8e93-6ea97c1916e7" d="m112.006,138.163c0-4.1,3.322-7.422,7.422-7.422s7.422,3.322,7.422,7.422-3.322,7.422-7.422,7.422-7.422-3.322-7.422-7.422Zm-45.519-63.296c0-4.1,3.322-7.422,7.422-7.422s7.422,3.322,7.422,7.422-3.322,7.422-7.422,7.422-7.422-3.322-7.422-7.422ZM.437,162.015V29.557h185.22v132.458H.437Z"/>
    <path class="uuid-0152606c-ae6d-41dc-9e5f-681936e9d853" d="m75.525,51.044c-.329-2.245,1.377-4.31,3.831-4.609.988-.12,2.005.06,2.873.539.928-1.586,3.053-2.185,4.788-1.347.299.15.569.329.808.539.718-1.287,2.454-1.826,3.891-1.167.389.18.748.449,1.018.748,1.137-1.227,3.172-1.377,4.519-.329.569.449.958,1.047,1.107,1.706,1.885.479,2.993,2.245,2.484,3.98-.06.15-.12.269-.18.419,1.526,1.796,1.137,4.369-.808,5.746-.628.419-1.347.718-2.125.808,0,1.915-1.736,3.472-3.861,3.472-.688,0-1.407-.209-2.005-.539-.718,2.155-3.202,3.382-5.566,2.723-.988-.269-1.855-.838-2.424-1.646-2.424,1.347-5.566.628-7.033-1.586-.03-.03-.03-.06-.06-.09-1.586.18-3.023-.868-3.202-2.304-.09-.778.18-1.526.778-2.095-1.377-.748-1.855-2.364-1.047-3.621.479-.718,1.287-1.197,2.185-1.287l.03-.06Z"/>
    <path class="uuid-0152606c-ae6d-41dc-9e5f-681936e9d853" d="m81.84,66.248c0,.299-.239.539-.539.539s-.539-.239-.539-.539.239-.539.539-.539.539.239.539.539Z"/>
    <path class="uuid-0152606c-ae6d-41dc-9e5f-681936e9d853" d="m82.678,65.589c0,.599-.479,1.077-1.047,1.077-.599,0-1.077-.479-1.077-1.077,0-.569.479-1.047,1.077-1.047.569,0,1.047.479,1.047,1.047Z"/>
    <path class="uuid-0152606c-ae6d-41dc-9e5f-681936e9d853" d="m84.024,64.003c0,.868-.718,1.586-1.616,1.586-.868,0-1.586-.718-1.586-1.586,0-.898.718-1.616,1.586-1.616.898,0,1.616.718,1.616,1.616Z"/>
    <path class="uuid-0152606c-ae6d-41dc-9e5f-681936e9d853" d="m76.064,56.282c-.599.06-1.197-.09-1.676-.359"/>
    <path class="uuid-0152606c-ae6d-41dc-9e5f-681936e9d853" d="m77.53,60.172c-.239.06-.479.12-.718.15"/>
    <path class="uuid-0152606c-ae6d-41dc-9e5f-681936e9d853" d="m83.875,62.028c-.18-.239-.329-.509-.449-.778"/>
    <path class="uuid-0152606c-ae6d-41dc-9e5f-681936e9d853" d="m92.045,60.083c-.03.299-.06.599-.18.868"/>
    <path class="uuid-0152606c-ae6d-41dc-9e5f-681936e9d853" d="m95.576,54.845c1.317.599,2.155,1.826,2.155,3.172"/>
    <path class="uuid-0152606c-ae6d-41dc-9e5f-681936e9d853" d="m100.664,51.463c-.209.479-.539.868-.958,1.197"/>
    <path class="uuid-0152606c-ae6d-41dc-9e5f-681936e9d853" d="m98.36,47.064c.03.18.06.389.03.569"/>
    <path class="uuid-0152606c-ae6d-41dc-9e5f-681936e9d853" d="m92.224,46.406c.12-.239.299-.509.479-.718"/>
    <path class="uuid-0152606c-ae6d-41dc-9e5f-681936e9d853" d="m87.616,46.765c.06-.239.15-.419.239-.628"/>
    <path class="uuid-0152606c-ae6d-41dc-9e5f-681936e9d853" d="m82.229,46.974c.299.15.599.359.868.599"/>
    <path class="uuid-0152606c-ae6d-41dc-9e5f-681936e9d853" d="m75.675,51.673c-.06-.209-.12-.419-.15-.628"/>
    <path class="uuid-0152606c-ae6d-41dc-9e5f-681936e9d853" d="m124.875,116.525c-.329-2.245,1.377-4.28,3.831-4.609.988-.12,2.005.06,2.873.539.898-1.586,3.053-2.185,4.758-1.347.329.15.599.329.838.569.718-1.317,2.454-1.855,3.891-1.197.389.18.718.449.988.748,1.167-1.227,3.202-1.377,4.549-.329.569.449.958,1.047,1.077,1.706,1.885.479,2.993,2.245,2.484,3.98-.03.15-.09.299-.15.419,1.496,1.796,1.137,4.369-.838,5.746-.599.419-1.317.718-2.095.808,0,1.915-1.736,3.472-3.861,3.472-.718,0-1.407-.18-2.005-.539-.718,2.155-3.202,3.382-5.566,2.723-1.018-.269-1.855-.838-2.454-1.616-2.394,1.317-5.566.599-7.003-1.616-.03-.03-.03-.06-.06-.09-1.586.18-3.023-.868-3.202-2.304-.12-.778.18-1.526.748-2.095-1.377-.748-1.826-2.364-1.018-3.621.449-.718,1.257-1.197,2.185-1.287l.03-.06Z"/>
    <path class="uuid-0152606c-ae6d-41dc-9e5f-681936e9d853" d="m131.16,131.728c0,.299-.239.539-.509.539-.299,0-.539-.239-.539-.539s.239-.539.539-.539c.269,0,.509.239.509.539Z"/>
    <path class="uuid-0152606c-ae6d-41dc-9e5f-681936e9d853" d="m132.028,131.1c0,.569-.479,1.047-1.077,1.047-.569,0-1.047-.479-1.047-1.047,0-.599.479-1.077,1.047-1.077.599,0,1.077.479,1.077,1.077Z"/>
    <path class="uuid-0152606c-ae6d-41dc-9e5f-681936e9d853" d="m133.345,129.484c0,.898-.718,1.586-1.586,1.586-.898,0-1.616-.688-1.616-1.586,0-.868.718-1.586,1.616-1.586.868,0,1.586.718,1.586,1.586Z"/>
    <path class="uuid-0152606c-ae6d-41dc-9e5f-681936e9d853" d="m125.384,121.763c-.569.06-1.167-.06-1.676-.359"/>
    <path class="uuid-0152606c-ae6d-41dc-9e5f-681936e9d853" d="m126.88,125.653c-.239.09-.479.12-.748.15"/>
    <path class="uuid-0152606c-ae6d-41dc-9e5f-681936e9d853" d="m133.195,127.509c-.15-.239-.299-.509-.419-.778"/>
    <path class="uuid-0152606c-ae6d-41dc-9e5f-681936e9d853" d="m141.395,125.593c-.03.269-.09.569-.18.838"/>
    <path class="uuid-0152606c-ae6d-41dc-9e5f-681936e9d853" d="m144.926,120.326c1.317.599,2.155,1.826,2.155,3.172"/>
    <path class="uuid-0152606c-ae6d-41dc-9e5f-681936e9d853" d="m149.984,116.974c-.209.449-.539.838-.958,1.167"/>
    <path class="uuid-0152606c-ae6d-41dc-9e5f-681936e9d853" d="m147.68,112.545c.06.18.06.389.06.569"/>
    <path class="uuid-0152606c-ae6d-41dc-9e5f-681936e9d853" d="m141.575,111.887c.12-.239.269-.479.479-.718"/>
    <path class="uuid-0152606c-ae6d-41dc-9e5f-681936e9d853" d="m136.966,112.246c.06-.209.12-.419.239-.628"/>
    <path class="uuid-0152606c-ae6d-41dc-9e5f-681936e9d853" d="m131.579,112.455c.299.15.599.359.838.599"/>
    <path class="uuid-0152606c-ae6d-41dc-9e5f-681936e9d853" d="m125.025,117.154c-.06-.209-.12-.419-.15-.628"/>
    <g>
      <path class="uuid-e4f2c373-0a91-4ff5-bc59-5c0610a029d6" d="m87.438,74.962c0,.233-.039.448-.116.645-.078.197-.193.368-.345.511-.153.144-.343.255-.571.335-.228.08-.492.12-.793.12h-.428v1.436h-.848v-4.469h1.31c.289,0,.545.031.768.094.222.062.409.154.561.275.152.121.267.27.346.446.079.177.118.379.118.607Zm-.882.058c0-.118-.019-.226-.056-.323-.038-.097-.095-.18-.171-.248-.077-.068-.173-.121-.289-.157-.116-.037-.254-.055-.414-.055h-.441v1.638h.469c.146,0,.274-.02.386-.06.112-.04.206-.098.282-.173.076-.075.134-.166.174-.27.04-.105.06-.222.06-.353Z"/>
      <path class="uuid-e4f2c373-0a91-4ff5-bc59-5c0610a029d6" d="m91.402,76.005c0,.057-.001.131-.005.222-.003.091-.009.177-.016.257h-2.284c0,.153.023.287.07.403.046.116.113.214.198.292s.188.138.308.179.252.062.398.062c.168,0,.349-.013.542-.039.192-.026.393-.069.6-.128v.664c-.089.025-.186.048-.291.068-.105.021-.212.039-.322.055s-.22.028-.332.036c-.112.008-.22.012-.325.012-.265,0-.501-.038-.711-.113-.209-.075-.388-.187-.533-.333-.146-.147-.258-.329-.335-.545-.077-.216-.116-.467-.116-.752,0-.283.039-.54.116-.771.078-.231.187-.43.329-.595.141-.166.312-.293.515-.383.202-.09.427-.135.675-.135.246,0,.464.038.653.115.189.076.348.183.476.319.127.137.225.3.291.489.066.189.099.396.099.622Zm-.848-.12c.002-.137-.015-.256-.051-.357-.036-.101-.086-.185-.148-.251-.063-.066-.136-.115-.219-.147-.083-.032-.172-.048-.268-.048-.21,0-.382.07-.517.21-.134.14-.214.338-.239.593h1.443Z"/>
      <path class="uuid-e4f2c373-0a91-4ff5-bc59-5c0610a029d6" d="m94.637,75.885c.005-.13-.001-.24-.019-.332s-.044-.167-.082-.226c-.038-.06-.084-.103-.139-.13s-.117-.041-.188-.041c-.123,0-.25.05-.381.152-.131.102-.275.269-.433.501v2.199h-.854v-3.474h.755l.031.506c.057-.089.122-.168.193-.239.072-.07.151-.131.239-.183.088-.052.185-.091.292-.118.107-.027.225-.041.352-.041.176,0,.331.03.467.09.136.061.25.15.342.269.092.119.161.268.206.446.044.179.063.386.056.621h-.838Z"/>
      <path class="uuid-e4f2c373-0a91-4ff5-bc59-5c0610a029d6" d="m99.292,76.986c0,.198-.044.368-.132.508-.087.14-.204.254-.349.342-.145.088-.309.152-.492.192-.184.04-.371.06-.562.06-.255,0-.486-.012-.691-.036s-.399-.059-.582-.104v-.752c.214.089.428.153.642.193.213.04.414.06.604.06.219,0,.382-.035.49-.104.108-.069.163-.16.163-.272,0-.052-.011-.1-.034-.144s-.065-.085-.128-.125c-.062-.04-.151-.081-.265-.123-.114-.042-.263-.089-.448-.142-.171-.048-.321-.102-.45-.163-.128-.061-.235-.132-.319-.214-.084-.082-.148-.177-.19-.285-.042-.108-.063-.235-.063-.381,0-.142.032-.275.096-.4.063-.125.159-.235.285-.33.126-.095.285-.169.474-.224.189-.055.411-.082.664-.082.219,0,.413.011.581.034.169.023.318.048.448.075v.681c-.198-.064-.385-.109-.559-.135s-.347-.04-.518-.04-.309.031-.412.093c-.104.062-.156.147-.156.256,0,.052.01.099.031.14s.061.081.122.12.145.079.253.122c.108.042.251.088.429.138.201.057.369.118.506.183.137.065.247.138.33.221.083.082.143.175.18.28.036.105.055.225.055.359Z"/>
      <path class="uuid-e4f2c373-0a91-4ff5-bc59-5c0610a029d6" d="m103.58,76.244c0,.274-.039.524-.116.751-.078.227-.189.421-.335.583-.146.162-.325.287-.537.376s-.454.133-.725.133c-.258,0-.488-.038-.691-.113s-.375-.188-.516-.337c-.142-.149-.25-.336-.325-.561s-.113-.486-.113-.785c0-.276.04-.527.118-.752s.191-.418.338-.578c.147-.159.327-.283.539-.371.212-.088.451-.132.718-.132.26,0,.491.038.694.115.203.076.375.189.517.34.141.15.249.337.323.559.074.222.111.479.111.771Zm-.869.021c0-.36-.068-.631-.203-.812-.136-.181-.336-.271-.6-.271-.146,0-.271.028-.373.085-.103.057-.187.135-.253.234s-.114.215-.145.347c-.031.132-.046.273-.046.424,0,.363.073.636.219.819s.345.275.599.275c.139,0,.26-.028.362-.083s.186-.133.25-.232.112-.216.144-.351c.032-.135.048-.279.048-.435Z"/>
      <path class="uuid-e4f2c373-0a91-4ff5-bc59-5c0610a029d6" d="m106.549,78.009v-2.264c0-.381-.141-.571-.424-.571-.142,0-.276.057-.405.171-.129.114-.265.269-.409.465v2.199h-.834v-3.474h.722l.021.513c.071-.089.144-.169.221-.243.076-.073.159-.135.248-.186.089-.052.185-.091.288-.118s.218-.041.345-.041c.178,0,.333.029.465.087.132.059.243.141.332.247s.155.233.2.383.067.316.067.501v2.332h-.834Z"/>
    </g>
    <g>
      <path class="uuid-e4f2c373-0a91-4ff5-bc59-5c0610a029d6" d="m133.735,138.468c0,.233-.039.448-.116.645-.078.197-.193.368-.345.511-.153.144-.343.255-.571.335-.228.08-.492.12-.793.12h-.428v1.436h-.848v-4.469h1.31c.289,0,.545.031.768.094.222.062.409.154.561.275.152.121.267.27.346.446.079.177.118.379.118.607Zm-.882.058c0-.118-.019-.226-.056-.323-.038-.097-.095-.18-.171-.248-.077-.068-.173-.121-.289-.157-.116-.037-.254-.055-.414-.055h-.441v1.638h.469c.146,0,.274-.02.386-.06.112-.04.206-.098.282-.173.076-.075.134-.166.174-.27.04-.105.06-.222.06-.353Z"/>
      <path class="uuid-e4f2c373-0a91-4ff5-bc59-5c0610a029d6" d="m137.699,139.51c0,.057-.001.131-.005.222-.003.091-.009.177-.016.257h-2.284c0,.153.023.287.07.403.046.116.113.214.198.292s.188.138.308.179.252.062.398.062c.168,0,.349-.013.542-.039.192-.026.393-.069.6-.128v.664c-.089.025-.186.048-.291.068-.105.021-.212.039-.322.055s-.22.028-.332.036c-.112.008-.22.012-.325.012-.265,0-.501-.038-.711-.113-.209-.075-.388-.187-.533-.333-.146-.147-.258-.329-.335-.545-.077-.216-.116-.467-.116-.752,0-.283.039-.54.116-.771.078-.231.187-.43.329-.595.141-.166.312-.293.515-.383.202-.09.427-.135.675-.135.246,0,.464.038.653.115.189.076.348.183.476.319.127.137.225.3.291.489.066.189.099.396.099.622Zm-.848-.12c.002-.137-.015-.256-.051-.357-.036-.101-.086-.185-.148-.251-.063-.066-.136-.115-.219-.147-.083-.032-.172-.048-.268-.048-.21,0-.382.07-.517.21-.134.14-.214.338-.239.593h1.443Z"/>
      <path class="uuid-e4f2c373-0a91-4ff5-bc59-5c0610a029d6" d="m140.934,139.391c.005-.13-.001-.24-.019-.332s-.044-.167-.082-.226c-.038-.06-.084-.103-.139-.13s-.117-.041-.188-.041c-.123,0-.25.05-.381.152-.131.102-.275.269-.433.501v2.199h-.854v-3.474h.755l.031.506c.057-.089.122-.168.193-.239.072-.07.151-.131.239-.183.088-.052.185-.091.292-.118.107-.027.225-.041.352-.041.176,0,.331.03.467.09.136.061.25.15.342.269.092.119.161.268.206.446.044.179.063.386.056.621h-.838Z"/>
      <path class="uuid-e4f2c373-0a91-4ff5-bc59-5c0610a029d6" d="m145.589,140.492c0,.198-.044.368-.132.508-.087.14-.204.254-.349.342-.145.088-.309.152-.492.192-.184.04-.371.06-.562.06-.255,0-.486-.012-.691-.036s-.399-.059-.582-.104v-.752c.214.089.428.153.642.193.213.04.414.06.604.06.219,0,.382-.035.49-.104.108-.069.163-.16.163-.272,0-.052-.011-.1-.034-.144s-.065-.085-.128-.125c-.062-.04-.151-.081-.265-.123-.114-.042-.263-.089-.448-.142-.171-.048-.321-.102-.45-.163-.128-.061-.235-.132-.319-.214-.084-.082-.148-.177-.19-.285-.042-.108-.063-.235-.063-.381,0-.142.032-.275.096-.4.063-.125.159-.235.285-.33.126-.095.285-.169.474-.224.189-.055.411-.082.664-.082.219,0,.413.011.581.034.169.023.318.048.448.075v.681c-.198-.064-.385-.109-.559-.135s-.347-.04-.518-.04-.309.031-.412.093c-.104.062-.156.147-.156.256,0,.052.01.099.031.14s.061.081.122.12.145.079.253.122c.108.042.251.088.429.138.201.057.369.118.506.183.137.065.247.138.33.221.083.082.143.175.18.28.036.105.055.225.055.359Z"/>
      <path class="uuid-e4f2c373-0a91-4ff5-bc59-5c0610a029d6" d="m149.877,139.75c0,.274-.039.524-.116.751-.078.227-.189.421-.335.583-.146.162-.325.287-.537.376s-.454.133-.725.133c-.258,0-.488-.038-.691-.113s-.375-.188-.516-.337c-.142-.149-.25-.336-.325-.561s-.113-.486-.113-.785c0-.276.04-.527.118-.752s.191-.418.338-.578c.147-.159.327-.283.539-.371.212-.088.451-.132.718-.132.26,0,.491.038.694.115.203.076.375.189.517.34.141.15.249.337.323.559.074.222.111.479.111.771Zm-.869.021c0-.36-.068-.631-.203-.812-.136-.181-.336-.271-.6-.271-.146,0-.271.028-.373.085-.103.057-.187.135-.253.234s-.114.215-.145.347c-.031.132-.046.273-.046.424,0,.363.073.636.219.819s.345.275.599.275c.139,0,.26-.028.362-.083s.186-.133.25-.232.112-.216.144-.351c.032-.135.048-.279.048-.435Z"/>
      <path class="uuid-e4f2c373-0a91-4ff5-bc59-5c0610a029d6" d="m152.846,141.514v-2.264c0-.381-.141-.571-.424-.571-.142,0-.276.057-.405.171-.129.114-.265.269-.409.465v2.199h-.834v-3.474h.722l.021.513c.071-.089.144-.169.221-.243.076-.073.159-.135.248-.186.089-.052.185-.091.288-.118s.218-.041.345-.041c.178,0,.333.029.465.087.132.059.243.141.332.247s.155.233.2.383.067.316.067.501v2.332h-.834Z"/>
    </g>
    <g>
      <path class="uuid-b199623d-98ef-4b63-8296-7bebddbaa580" d="m75.577,42.426v-4.469h1.443c.508,0,.89.089,1.144.267.254.178.381.447.381.807,0,.112-.013.221-.04.327-.026.106-.066.203-.121.292-.055.089-.123.167-.205.236s-.179.122-.291.161c.112.018.218.054.32.108.102.053.19.123.267.208.077.085.137.186.182.302.044.117.066.247.066.39,0,.456-.153.798-.458,1.027-.306.229-.747.344-1.323.344h-1.365Zm2.093-3.249c0-.084-.014-.161-.041-.229s-.071-.126-.131-.174c-.061-.048-.138-.085-.233-.111-.094-.026-.209-.039-.343-.039h-.51v1.183h.51c.137,0,.252-.017.347-.05.095-.033.172-.079.233-.137.06-.058.104-.125.13-.2.026-.075.039-.156.039-.243Zm-.67,2.561c.134,0,.252-.017.354-.051.102-.034.187-.082.255-.142.068-.061.12-.132.156-.214.035-.082.053-.17.053-.263,0-.194-.072-.345-.217-.455-.145-.109-.367-.164-.665-.164h-.523v1.289h.588Z"/>
      <path class="uuid-b199623d-98ef-4b63-8296-7bebddbaa580" d="m82.662,40.422c0,.057-.001.131-.005.222-.003.091-.009.177-.016.257h-2.284c0,.153.023.287.07.403.046.116.113.214.198.292s.188.138.308.179.252.062.398.062c.168,0,.349-.013.542-.039.192-.026.393-.069.6-.128v.664c-.089.025-.186.048-.291.068-.105.021-.212.039-.322.055s-.22.028-.332.036c-.112.008-.22.012-.325.012-.265,0-.501-.038-.711-.113-.209-.075-.388-.187-.533-.333-.146-.147-.258-.329-.335-.545-.077-.216-.116-.467-.116-.752,0-.283.039-.54.116-.771.078-.231.187-.43.329-.595.141-.166.312-.293.515-.383.202-.09.427-.135.675-.135.246,0,.464.038.653.115.189.076.348.183.476.319.127.137.225.3.291.489.066.189.099.396.099.622Zm-.848-.12c.002-.137-.015-.256-.051-.357-.036-.101-.086-.185-.148-.251-.063-.066-.136-.115-.219-.147-.083-.032-.172-.048-.268-.048-.21,0-.382.07-.517.21-.134.14-.214.338-.239.593h1.443Z"/>
      <path class="uuid-b199623d-98ef-4b63-8296-7bebddbaa580" d="m85.734,42.426v-2.264c0-.381-.141-.571-.424-.571-.142,0-.276.057-.405.171-.129.114-.265.269-.409.465v2.199h-.834v-4.832h.834v1.19l-.041.629c.071-.084.143-.16.215-.227.073-.067.152-.124.236-.169.084-.045.175-.081.273-.104.098-.024.206-.036.325-.036.178,0,.333.029.465.087.132.059.243.141.332.247s.155.233.2.383.067.316.067.501v2.332h-.834Z"/>
      <path class="uuid-b199623d-98ef-4b63-8296-7bebddbaa580" d="m89.865,42.426l-.021-.455c-.073.077-.149.148-.229.213s-.167.122-.263.169-.2.085-.313.111c-.113.026-.236.039-.371.039-.178,0-.334-.026-.468-.079-.135-.052-.248-.125-.338-.219-.091-.094-.16-.207-.207-.338-.047-.132-.07-.278-.07-.438,0-.164.035-.315.104-.455.069-.139.175-.259.318-.359.143-.1.32-.179.534-.236.213-.057.463-.085.75-.085h.455v-.208c0-.089-.013-.169-.038-.241s-.065-.133-.121-.183c-.056-.05-.128-.089-.217-.117-.089-.027-.198-.041-.328-.041-.206,0-.408.023-.607.07-.2.047-.393.112-.58.197v-.667c.166-.066.358-.121.576-.164.217-.043.444-.065.679-.065.257,0,.479.024.663.073.185.049.337.123.457.221s.208.221.265.368.085.318.085.515v2.373h-.715Zm-.12-1.535h-.509c-.142,0-.261.014-.359.041-.098.027-.178.065-.239.113s-.106.103-.135.166c-.029.063-.043.129-.043.2,0,.142.045.249.137.323s.215.111.373.111c.116,0,.237-.042.362-.126.125-.084.263-.205.414-.362v-.465Z"/>
      <path class="uuid-b199623d-98ef-4b63-8296-7bebddbaa580" d="m93.655,42.426h-.961l-1.378-3.474h.93l.722,1.97.215.636.212-.608.729-1.997h.896l-1.364,3.474Z"/>
      <path class="uuid-b199623d-98ef-4b63-8296-7bebddbaa580" d="m96.859,39.601h-.981v-.65h1.836v2.824h1.002v.65h-2.958v-.65h1.101v-2.174Zm.923-1.601c0,.075-.014.146-.041.212-.027.066-.065.124-.114.173-.049.049-.107.088-.173.116-.066.029-.138.043-.215.043-.078,0-.15-.014-.217-.043-.067-.028-.125-.067-.174-.116-.049-.049-.087-.106-.115-.173-.027-.066-.041-.137-.041-.212s.014-.146.041-.212.065-.124.115-.174c.049-.05.107-.089.174-.118.067-.028.14-.042.217-.042.077,0,.149.014.215.042.066.029.124.068.173.118.049.05.087.108.114.174s.041.137.041.212Z"/>
      <path class="uuid-b199623d-98ef-4b63-8296-7bebddbaa580" d="m102.891,40.661c0,.274-.039.524-.116.751-.078.227-.189.421-.335.583-.146.162-.325.287-.537.376s-.454.133-.725.133c-.258,0-.488-.038-.691-.113s-.375-.188-.516-.337c-.142-.149-.25-.336-.325-.561s-.113-.486-.113-.785c0-.276.04-.527.118-.752s.191-.418.338-.578c.147-.159.327-.283.539-.371.212-.088.451-.132.718-.132.26,0,.491.038.694.115.203.076.375.189.517.34.141.15.249.337.323.559.074.222.111.479.111.771Zm-.869.021c0-.36-.068-.631-.203-.812-.136-.181-.336-.271-.6-.271-.146,0-.271.028-.373.085-.103.057-.187.135-.253.234s-.114.215-.145.347c-.031.132-.046.273-.046.424,0,.363.073.636.219.819s.345.275.599.275c.139,0,.26-.028.362-.083s.186-.133.25-.232.112-.216.144-.351c.032-.135.048-.279.048-.435Z"/>
      <path class="uuid-b199623d-98ef-4b63-8296-7bebddbaa580" d="m106.024,40.302c.005-.13-.001-.24-.019-.332s-.044-.167-.082-.226c-.038-.06-.084-.103-.139-.13s-.117-.041-.188-.041c-.123,0-.25.05-.381.152-.131.102-.275.269-.433.501v2.199h-.854v-3.474h.755l.031.506c.057-.089.122-.168.193-.239.072-.07.151-.131.239-.183.088-.052.185-.091.292-.118.107-.027.225-.041.352-.041.176,0,.331.03.467.09.136.061.25.15.342.269.092.119.161.268.206.446.044.179.063.386.056.621h-.838Z"/>
    </g>
    <g>
      <path class="uuid-b199623d-98ef-4b63-8296-7bebddbaa580" d="m125.765,106.799v-4.469h1.443c.508,0,.89.089,1.144.267.254.178.381.447.381.807,0,.112-.013.221-.04.327-.026.106-.066.203-.121.292-.055.089-.123.167-.205.236s-.179.122-.291.161c.112.018.218.054.32.108.102.053.19.123.267.208.077.085.137.186.182.302.044.117.066.247.066.39,0,.456-.153.798-.458,1.027-.306.229-.747.344-1.323.344h-1.365Zm2.093-3.249c0-.084-.014-.161-.041-.229s-.071-.126-.131-.174c-.061-.048-.138-.085-.233-.111-.094-.026-.209-.039-.343-.039h-.51v1.183h.51c.137,0,.252-.017.347-.05.095-.033.172-.079.233-.137.06-.058.104-.125.13-.2.026-.075.039-.156.039-.243Zm-.67,2.561c.134,0,.252-.017.354-.051.102-.034.187-.082.255-.142.068-.061.12-.132.156-.214.035-.082.053-.17.053-.263,0-.194-.072-.345-.217-.455-.145-.109-.367-.164-.665-.164h-.523v1.289h.588Z"/>
      <path class="uuid-b199623d-98ef-4b63-8296-7bebddbaa580" d="m132.851,104.795c0,.057-.001.131-.005.222-.003.091-.009.177-.016.257h-2.284c0,.153.023.287.07.403.046.116.113.214.198.292s.188.138.308.179.252.062.398.062c.168,0,.349-.013.542-.039.192-.026.393-.069.6-.128v.664c-.089.025-.186.048-.291.068-.105.021-.212.039-.322.055s-.22.028-.332.036c-.112.008-.22.012-.325.012-.265,0-.501-.038-.711-.113-.209-.075-.388-.187-.533-.333-.146-.147-.258-.329-.335-.545-.077-.216-.116-.467-.116-.752,0-.283.039-.54.116-.771.078-.231.187-.43.329-.595.141-.166.312-.293.515-.383.202-.09.427-.135.675-.135.246,0,.464.038.653.115.189.076.348.183.476.319.127.137.225.3.291.489.066.189.099.396.099.622Zm-.848-.12c.002-.137-.015-.256-.051-.357-.036-.101-.086-.185-.148-.251-.063-.066-.136-.115-.219-.147-.083-.032-.172-.048-.268-.048-.21,0-.382.07-.517.21-.134.14-.214.338-.239.593h1.443Z"/>
      <path class="uuid-b199623d-98ef-4b63-8296-7bebddbaa580" d="m135.922,106.799v-2.264c0-.381-.141-.571-.424-.571-.142,0-.276.057-.405.171-.129.114-.265.269-.409.465v2.199h-.834v-4.832h.834v1.19l-.041.629c.071-.084.143-.16.215-.227.073-.067.152-.124.236-.169.084-.045.175-.081.273-.104.098-.024.206-.036.325-.036.178,0,.333.029.465.087.132.059.243.141.332.247s.155.233.2.383.067.316.067.501v2.332h-.834Z"/>
      <path class="uuid-b199623d-98ef-4b63-8296-7bebddbaa580" d="m140.054,106.799l-.021-.455c-.073.077-.149.148-.229.213s-.167.122-.263.169-.2.085-.313.111c-.113.026-.236.039-.371.039-.178,0-.334-.026-.468-.079-.135-.052-.248-.125-.338-.219-.091-.094-.16-.207-.207-.338-.047-.132-.07-.278-.07-.438,0-.164.035-.315.104-.455.069-.139.175-.259.318-.359.143-.1.32-.179.534-.236.213-.057.463-.085.75-.085h.455v-.208c0-.089-.013-.169-.038-.241s-.065-.133-.121-.183c-.056-.05-.128-.089-.217-.117-.089-.027-.198-.041-.328-.041-.206,0-.408.023-.607.07-.2.047-.393.112-.58.197v-.667c.166-.066.358-.121.576-.164.217-.043.444-.065.679-.065.257,0,.479.024.663.073.185.049.337.123.457.221s.208.221.265.368.085.318.085.515v2.373h-.715Zm-.12-1.535h-.509c-.142,0-.261.014-.359.041-.098.027-.178.065-.239.113s-.106.103-.135.166c-.029.063-.043.129-.043.2,0,.142.045.249.137.323s.215.111.373.111c.116,0,.237-.042.362-.126.125-.084.263-.205.414-.362v-.465Z"/>
      <path class="uuid-b199623d-98ef-4b63-8296-7bebddbaa580" d="m143.843,106.799h-.961l-1.378-3.474h.93l.722,1.97.215.636.212-.608.729-1.997h.896l-1.364,3.474Z"/>
      <path class="uuid-b199623d-98ef-4b63-8296-7bebddbaa580" d="m147.047,103.974h-.981v-.65h1.836v2.824h1.002v.65h-2.958v-.65h1.101v-2.174Zm.923-1.601c0,.075-.014.146-.041.212-.027.066-.065.124-.114.173-.049.049-.107.088-.173.116-.066.029-.138.043-.215.043-.078,0-.15-.014-.217-.043-.067-.028-.125-.067-.174-.116-.049-.049-.087-.106-.115-.173-.027-.066-.041-.137-.041-.212s.014-.146.041-.212.065-.124.115-.174c.049-.05.107-.089.174-.118.067-.028.14-.042.217-.042.077,0,.149.014.215.042.066.029.124.068.173.118.049.05.087.108.114.174s.041.137.041.212Z"/>
      <path class="uuid-b199623d-98ef-4b63-8296-7bebddbaa580" d="m153.08,105.034c0,.274-.039.524-.116.751-.078.227-.189.421-.335.583-.146.162-.325.287-.537.376s-.454.133-.725.133c-.258,0-.488-.038-.691-.113s-.375-.188-.516-.337c-.142-.149-.25-.336-.325-.561s-.113-.486-.113-.785c0-.276.04-.527.118-.752s.191-.418.338-.578c.147-.159.327-.283.539-.371.212-.088.451-.132.718-.132.26,0,.491.038.694.115.203.076.375.189.517.34.141.15.249.337.323.559.074.222.111.479.111.771Zm-.869.021c0-.36-.068-.631-.203-.812-.136-.181-.336-.271-.6-.271-.146,0-.271.028-.373.085-.103.057-.187.135-.253.234s-.114.215-.145.347c-.031.132-.046.273-.046.424,0,.363.073.636.219.819s.345.275.599.275c.139,0,.26-.028.362-.083s.186-.133.25-.232.112-.216.144-.351c.032-.135.048-.279.048-.435Z"/>
      <path class="uuid-b199623d-98ef-4b63-8296-7bebddbaa580" d="m156.213,104.675c.005-.13-.001-.24-.019-.332s-.044-.167-.082-.226c-.038-.06-.084-.103-.139-.13s-.117-.041-.188-.041c-.123,0-.25.05-.381.152-.131.102-.275.269-.433.501v2.199h-.854v-3.474h.755l.031.506c.057-.089.122-.168.193-.239.072-.07.151-.131.239-.183.088-.052.185-.091.292-.118.107-.027.225-.041.352-.041.176,0,.331.03.467.09.136.061.25.15.342.269.092.119.161.268.206.446.044.179.063.386.056.621h-.838Z"/>
    </g>
    <polygon class="uuid-2b123dc0-368b-45ba-8e93-6ea97c1916e7" points="23.002 126.252 34.853 126.252 38.534 114.401 42.186 126.252 54.037 126.252 44.46 133.584 48.111 145.435 38.534 138.103 28.928 145.435 32.609 133.584 23.002 126.252"/>
    <g>
      <path class="uuid-30a0a51d-a32d-4c6d-ac57-1fc4a8b3a4eb" d="m28.989,152.109v-4.469h2.691v.711h-1.836v1.111h1.751v.694h-1.751v1.241h1.836v.711h-2.691Z"/>
      <path class="uuid-30a0a51d-a32d-4c6d-ac57-1fc4a8b3a4eb" d="m34.809,152.109h-.961l-1.378-3.474h.93l.722,1.97.215.636.212-.608.729-1.997h.896l-1.364,3.474Z"/>
      <path class="uuid-30a0a51d-a32d-4c6d-ac57-1fc4a8b3a4eb" d="m39.925,150.105c0,.057-.001.131-.005.222-.003.091-.009.177-.016.257h-2.284c0,.153.023.287.07.403.046.116.113.214.198.292s.188.138.308.179.252.062.398.062c.168,0,.349-.013.542-.039.192-.026.393-.069.6-.128v.664c-.089.025-.186.048-.291.068-.105.021-.212.039-.322.055s-.22.028-.332.036c-.112.008-.22.012-.325.012-.265,0-.501-.038-.711-.113-.209-.075-.388-.187-.533-.333-.146-.147-.258-.329-.335-.545-.077-.216-.116-.467-.116-.752,0-.283.039-.54.116-.771.078-.231.187-.43.329-.595.141-.166.312-.293.515-.383.202-.09.427-.135.675-.135.246,0,.464.038.653.115.189.076.348.183.476.319.127.137.225.3.291.489.066.189.099.396.099.622Zm-.848-.12c.002-.137-.015-.256-.051-.357-.036-.101-.086-.185-.148-.251-.063-.066-.136-.115-.219-.147-.083-.032-.172-.048-.268-.048-.21,0-.382.07-.517.21-.134.14-.214.338-.239.593h1.443Z"/>
      <path class="uuid-30a0a51d-a32d-4c6d-ac57-1fc4a8b3a4eb" d="m43.004,152.109v-2.264c0-.381-.141-.571-.424-.571-.142,0-.276.057-.405.171-.129.114-.265.269-.409.465v2.199h-.834v-3.474h.722l.021.513c.071-.089.144-.169.221-.243.076-.073.159-.135.248-.186.089-.052.185-.091.288-.118s.218-.041.345-.041c.178,0,.333.029.465.087.132.059.243.141.332.247s.155.233.2.383.067.316.067.501v2.332h-.834Z"/>
      <path class="uuid-30a0a51d-a32d-4c6d-ac57-1fc4a8b3a4eb" d="m47.829,152.075c-.15.034-.302.062-.455.082-.153.021-.298.031-.435.031-.228,0-.424-.024-.59-.072-.165-.048-.302-.121-.41-.219-.108-.098-.188-.223-.239-.375-.051-.151-.077-.332-.077-.542v-1.696h-.934v-.65h.934v-.889l.855-.222v1.111h1.351v.65h-1.351v1.634c0,.198.045.348.137.45s.244.152.458.152c.137,0,.27-.011.4-.034.13-.022.248-.049.355-.079v.667Z"/>
    </g>
    <g>
      <path class="uuid-d8cf1796-1d1e-4dac-afda-7d8ae6c94c8f" d="m90.761,169.646l-.247-.882h-1.559l-.253.882h-.834l1.323-4.469h1.176l1.323,4.469h-.93Zm-1.016-3.648l-.588,2.079h1.169l-.581-2.079Z"/>
      <path class="uuid-d8cf1796-1d1e-4dac-afda-7d8ae6c94c8f" d="m92.335,169.646v-4.469h1.443c.508,0,.89.089,1.144.267.254.178.381.447.381.807,0,.112-.013.221-.04.327-.026.106-.066.203-.121.292-.055.089-.123.167-.205.236-.082.068-.179.123-.291.161.112.019.218.054.32.108.102.053.19.123.267.208.077.085.137.187.182.303s.066.246.066.39c0,.456-.153.798-.458,1.027-.306.229-.747.344-1.323.344h-1.365Zm2.093-3.249c0-.084-.014-.161-.041-.229s-.071-.126-.131-.174c-.061-.048-.138-.085-.233-.111-.094-.026-.209-.039-.343-.039h-.51v1.183h.51c.137,0,.252-.017.347-.05.095-.033.172-.079.233-.137.06-.058.104-.125.13-.2.026-.075.039-.156.039-.243Zm-.67,2.561c.134,0,.252-.017.354-.051.102-.034.187-.082.255-.143.068-.06.12-.131.156-.213.035-.083.053-.17.053-.264,0-.193-.072-.346-.217-.455-.145-.109-.367-.164-.665-.164h-.523v1.289h.588Z"/>
      <path class="uuid-d8cf1796-1d1e-4dac-afda-7d8ae6c94c8f" d="m98.888,169.646l-.082-2.527-.031-1.009-.215.684-.496,1.521h-.527l-.448-1.521-.188-.684-.024.988-.075,2.547h-.715l.219-4.469h.951l.393,1.269.188.714.188-.673.414-1.31h.968l.222,4.469h-.742Z"/>
    </g>
    <line class="uuid-ebda23db-45d2-45f4-818b-828e616caecf" x1="79.236" y1="82.887" x2="113.293" y2="130.442"/>
    <path class="uuid-26271300-8b1a-43bd-bf1f-7a81de8730e2" d="m104.016,131.01l1.826-1.317c.329-.209.389-.419.239-.658-.09-.12-.209-.209-.389-.239-.15-.03-.359-.06-.599-.06l-1.796,1.287-.479-.688,2.813-2.005.419.569-.389.329c.12,0,.209,0,.329.03.09.03.18.06.269.09.12.06.209.12.269.18.09.06.18.15.239.239.09.15.18.299.209.449.03.12.03.269-.03.419-.03.12-.09.239-.18.359-.09.15-.239.239-.389.359l-1.885,1.347m-1.287-4.818c.299-.209.479-.419.569-.628.06-.209,0-.419-.15-.628-.06-.12-.18-.209-.269-.269-.12-.06-.209-.06-.329-.06s-.269.03-.389.06c-.12.06-.239.12-.359.209-.299.209-.479.449-.539.658-.06.239-.03.449.12.658.09.12.18.18.269.239.12.06.209.09.329.06.12,0,.239-.03.389-.09.12-.03.239-.12.359-.209Zm.539.718c-.239.15-.449.269-.688.329s-.449.09-.658.06c-.239-.03-.419-.09-.628-.209-.209-.12-.359-.299-.539-.509-.15-.209-.239-.419-.299-.628-.06-.209-.06-.419-.03-.628.06-.209.15-.389.269-.599.15-.18.329-.359.569-.539.239-.15.479-.269.688-.329.239-.06.449-.09.688-.06.209.03.419.09.599.209.209.12.359.299.539.509.15.209.239.419.299.628.06.209.06.419.03.628-.06.209-.15.389-.269.599-.15.18-.329.359-.569.539Zm-2.634-5.566l-.569-.778.509-.389,1.077,1.496-2.304,1.646.569.808-.509.389-1.736-2.424.539-.389.628.898,1.796-1.257Zm1.826-.15c-.06.03-.12.06-.18.09h-.209c-.09-.03-.15-.03-.209-.09-.06-.03-.12-.09-.15-.15-.06-.06-.09-.12-.09-.18-.03-.09-.03-.15,0-.209,0-.09.03-.15.06-.209s.09-.12.15-.15c.06-.06.12-.09.209-.09.06-.03.12-.03.209,0,.06,0,.12.03.18.06.06.03.12.09.18.15.03.06.06.15.09.209v.209l-.09.18c-.03.06-.09.12-.15.18Zm-5.417-.06c-.12-.12-.239-.209-.329-.329-.12-.12-.209-.239-.269-.329-.15-.209-.239-.389-.299-.539-.06-.15-.06-.329-.06-.449.03-.15.09-.299.18-.419s.209-.269.389-.389l1.377-.988-.539-.748.539-.389.539.778.718-.509.688.569-.928.628.808,1.107-.539.389-.778-1.107-1.347.928c-.15.12-.239.239-.269.389-.03.12,0,.269.12.449.09.12.18.209.269.299.09.12.18.18.269.269l-.539.389Zm-1.586-4.848l-.299-.389c-.09-.12-.15-.209-.239-.269-.09-.09-.15-.12-.239-.15-.06-.03-.12-.03-.209,0-.06,0-.12.03-.18.06-.12.09-.18.209-.18.299,0,.12.03.239.12.389.06.09.18.15.299.209.15.06.329.09.539.12l.389-.269Zm-1.197.988l.359-.269c-.09,0-.18-.03-.299-.06-.09-.03-.18-.06-.269-.12-.12-.06-.209-.12-.299-.18-.06-.09-.15-.18-.239-.299-.09-.15-.18-.269-.209-.419-.03-.15-.03-.269,0-.389,0-.15.06-.269.15-.389.09-.09.18-.209.299-.299.15-.09.299-.15.449-.18.15-.03.299,0,.479.06.15.06.329.15.509.299.15.12.329.329.479.569l.269.359.18-.12c.06-.06.12-.12.18-.18.03-.06.06-.12.06-.209.03-.06,0-.15-.03-.239s-.06-.18-.15-.299c-.12-.15-.239-.299-.419-.449-.15-.12-.299-.239-.479-.359l.539-.389c.15.12.299.239.479.389.15.15.299.329.449.509.15.209.239.419.299.599.09.18.12.329.09.479,0,.18-.06.299-.15.449-.09.12-.209.239-.359.359l-1.945,1.377-.419-.599Zm-1.855-2.843c-.15-.09-.269-.209-.419-.329-.12-.12-.239-.269-.359-.419-.15-.239-.269-.449-.329-.688-.06-.209-.09-.419-.06-.628.06-.209.12-.419.269-.599.12-.209.299-.389.539-.539.239-.18.449-.269.688-.329.239-.06.479-.09.688-.06.239.06.449.15.628.269.209.12.389.299.539.539.15.18.239.359.299.479.09.15.15.269.18.389l-.658.479c-.03-.15-.06-.329-.15-.479-.06-.15-.12-.299-.209-.419-.09-.12-.18-.209-.299-.299-.12-.06-.239-.09-.359-.12-.12,0-.269,0-.389.06-.15.03-.269.09-.389.18-.15.09-.269.209-.329.329-.09.12-.15.239-.18.359,0,.12,0,.239.03.389.03.12.09.239.18.359.03.06.09.12.15.18.03.06.09.12.15.18.09.06.15.12.209.15.06.06.12.09.18.15l-.599.419Zm-1.107-6.195l-.569-.808.539-.389,1.077,1.496-2.304,1.646.569.808-.539.389-1.706-2.424.539-.359.628.898,1.766-1.257Zm1.855-.18c-.06.03-.12.06-.209.09h-.209c-.06,0-.12-.03-.18-.06-.06-.06-.12-.09-.18-.18l-.09-.18v-.209c.03-.09.03-.15.09-.209.03-.06.09-.09.15-.15.06-.03.12-.06.18-.09.09,0,.15-.03.209,0,.09,0,.15.03.209.06.06.06.12.09.15.15.06.09.09.15.09.209.03.06.03.15,0,.209,0,.06-.03.15-.06.209s-.09.09-.15.15Zm-5.926-.718l1.826-1.317c.329-.209.389-.449.239-.658-.09-.12-.209-.209-.389-.239-.15-.03-.359-.06-.599-.06l-1.796,1.257-.479-.658,2.813-2.035.419.599-.389.299c.09.03.209.03.329.06.09,0,.18.06.269.09s.18.09.269.18c.09.06.15.15.239.239.09.15.18.299.209.419.03.15,0,.299-.03.419-.03.15-.09.269-.18.389-.12.12-.239.239-.389.359l-1.885,1.347-.479-.688Zm-.209-6.285l-1.855,1.287c-.15.12-.239.239-.299.359-.03.09,0,.209.09.329.06.12.18.18.359.239.18.03.389.06.628.06l1.796-1.287.479.688-2.843,2.005-.419-.569.419-.329c-.12,0-.239-.03-.329-.03-.12-.03-.209-.06-.299-.09l-.269-.18c-.09-.06-.15-.15-.239-.239-.09-.15-.15-.299-.18-.449-.03-.15-.03-.269,0-.419.03-.12.09-.239.209-.389.09-.12.209-.209.359-.329l1.915-1.347.479.688Zm-4.25.03l1.945-1.377c.06-.03.12-.09.18-.12l.12-.12c.03-.03.03-.09.03-.12s0-.06-.03-.09c-.03-.06-.12-.09-.239-.09s-.299.03-.539.09l-1.826,1.287-.419-.569,1.945-1.377c.06-.03.12-.09.18-.12.03-.06.09-.09.12-.12,0-.03.03-.09.03-.12s0-.06-.03-.09c-.03-.06-.12-.09-.239-.09s-.299.03-.539.09l-1.826,1.287-.419-.569,2.813-2.005.359.479-.389.329c.12-.03.209-.03.299-.03.09-.03.15,0,.239,0l.18.09c.06.06.12.12.15.18.12.15.15.299.15.449-.03.15-.12.269-.269.389.12-.03.239-.03.329-.03s.18.03.239.03l.18.09c.06.06.12.12.15.18.15.209.209.419.12.599-.06.209-.239.419-.539.599l-2.035,1.466-.419-.599Zm-2.304-3.262l1.915-1.377c.09-.06.15-.09.18-.15.06-.03.09-.06.12-.12.03-.03.06-.06.06-.09s-.03-.06-.03-.12c-.06-.06-.12-.09-.239-.09s-.299.03-.539.12l-1.855,1.287-.389-.569,1.915-1.377c.06-.06.12-.09.18-.15.06-.03.09-.06.12-.12.03-.03.03-.06.03-.09.03-.03,0-.06-.03-.12-.03-.03-.12-.06-.239-.06s-.299,0-.539.06l-1.826,1.317-.419-.599,2.843-2.005.359.509-.419.299c.12,0,.209-.03.299-.03s.18.03.239.03c.09.03.15.06.209.09.03.06.09.09.15.18.09.15.15.299.12.449-.03.12-.09.269-.239.359h.299c.09,0,.18,0,.239.03.09.03.15.06.209.09.06.06.09.09.15.18.15.209.18.389.12.599-.09.209-.269.389-.539.599l-2.035,1.437-.419-.569Zm-1.047-4.459c.299-.209.479-.419.569-.658.06-.209.03-.419-.15-.628-.06-.12-.18-.209-.269-.269-.12-.03-.209-.06-.329-.06s-.239.03-.389.09c-.12.03-.239.12-.359.209-.299.209-.479.419-.539.628-.06.239-.03.449.12.658.09.12.18.209.269.239.12.06.209.09.329.09.12-.03.239-.06.389-.09.12-.06.239-.12.359-.209Zm.539.688c-.239.15-.449.269-.688.329-.239.09-.449.09-.658.06-.209,0-.419-.09-.628-.209-.18-.12-.359-.299-.539-.509-.12-.209-.239-.419-.299-.628-.06-.209-.06-.419-.03-.628.06-.18.15-.389.269-.569.15-.209.329-.389.599-.569.209-.15.449-.269.658-.329.239-.06.479-.09.688-.06.209.03.419.09.599.239.209.12.389.269.539.509.15.209.239.419.299.628.06.209.06.419.03.599-.06.209-.15.419-.269.599-.15.18-.329.359-.569.539Zm-3.741-2.514c-.18-.12-.329-.239-.479-.359-.15-.15-.269-.299-.389-.449-.18-.269-.299-.509-.359-.778-.09-.269-.09-.509-.03-.748.06-.269.18-.509.359-.718.15-.239.389-.449.688-.688.329-.209.628-.359.898-.449.299-.09.599-.12.868-.09.269.03.509.12.748.269.239.12.449.329.628.599.06.09.09.15.15.239.06.06.09.15.12.239.06.06.09.15.12.239.03.09.06.18.09.269l-.658.479c-.06-.209-.09-.389-.18-.569-.06-.18-.15-.299-.209-.419-.12-.18-.269-.299-.419-.389-.15-.06-.299-.12-.479-.12s-.329.06-.509.12c-.209.06-.389.18-.569.299-.209.15-.359.299-.479.449-.15.15-.239.299-.269.449-.06.15-.06.329-.03.479.03.18.09.329.209.509.06.06.12.12.18.18.06.06.12.12.209.18.06.06.12.12.209.18.09.06.15.09.239.15l-.658.449Z"/>
    <path class="uuid-fb8a06cb-2ac3-4e84-9a31-cadfc0258e31" d="m108.026,139.749h-56.982m17.986-56.263l-24.87,38.995"/>
    <g>
      <path class="uuid-d8cf1796-1d1e-4dac-afda-7d8ae6c94c8f" d="m59.554,145.614l-.013-.284c-.045.048-.093.093-.143.133s-.104.076-.165.105c-.06.03-.125.053-.195.069-.07.017-.147.024-.231.024-.111,0-.208-.016-.292-.049s-.154-.078-.211-.137c-.057-.058-.1-.128-.129-.211s-.044-.174-.044-.273c0-.103.022-.197.065-.284.043-.086.109-.161.198-.224.089-.063.2-.112.333-.147.133-.036.289-.053.468-.053h.284v-.13c0-.055-.008-.105-.023-.15-.016-.044-.041-.083-.076-.114-.035-.032-.08-.056-.136-.073s-.124-.025-.205-.025c-.128,0-.254.014-.379.043s-.245.07-.362.123v-.416c.104-.041.224-.075.36-.102.136-.027.277-.041.423-.041.161,0,.299.015.414.046.115.03.21.076.285.137.075.062.13.138.166.229.035.092.053.199.053.321v1.48h-.446Zm-.075-.958h-.318c-.088,0-.163.009-.224.026s-.111.041-.149.07-.066.064-.084.104c-.018.039-.026.081-.026.125,0,.088.028.156.085.202.057.046.134.069.232.069.072,0,.148-.026.226-.079.078-.053.164-.128.258-.227v-.29Z"/>
      <path class="uuid-d8cf1796-1d1e-4dac-afda-7d8ae6c94c8f" d="m62.552,145.531c-.103.041-.208.072-.318.091-.109.02-.224.03-.344.03-.172,0-.326-.023-.463-.071-.136-.047-.252-.116-.348-.209-.095-.092-.168-.207-.219-.343-.05-.137-.076-.294-.076-.474,0-.174.027-.331.082-.472.055-.141.132-.261.231-.36.1-.1.22-.176.36-.23s.296-.081.468-.081c.141,0,.259.007.355.022.096.015.183.034.259.056v.506c-.088-.044-.184-.078-.287-.103-.103-.024-.201-.036-.293-.036-.097,0-.184.017-.26.049-.077.033-.142.079-.194.137-.053.059-.093.129-.121.212-.028.083-.042.174-.042.274,0,.104.015.197.045.28.03.083.072.152.127.21.055.058.121.102.197.132s.162.046.256.046c.045,0,.094-.003.144-.01s.101-.016.151-.027c.051-.012.101-.026.149-.042.049-.016.095-.033.138-.051v.463Z"/>
      <path class="uuid-d8cf1796-1d1e-4dac-afda-7d8ae6c94c8f" d="m65.189,145.593c-.094.021-.188.039-.284.051s-.186.019-.271.019c-.142,0-.265-.015-.368-.044s-.188-.076-.256-.137c-.068-.061-.118-.139-.149-.233-.032-.095-.048-.208-.048-.338v-1.058h-.583v-.405h.583v-.555l.533-.139v.693h.843v.405h-.843v1.02c0,.124.028.217.085.281.057.063.152.095.286.095.085,0,.168-.007.25-.021.082-.014.155-.031.222-.049v.416Z"/>
      <path class="uuid-d8cf1796-1d1e-4dac-afda-7d8ae6c94c8f" d="m66.704,143.852h-.613v-.405h1.146v1.762h.625v.405h-1.845v-.405h.687v-1.357Zm.576-.999c0,.047-.008.091-.025.132-.017.041-.041.077-.072.108-.03.03-.066.055-.107.072-.042.018-.086.027-.134.027-.049,0-.094-.009-.136-.027-.042-.018-.078-.042-.109-.072-.03-.031-.054-.067-.071-.108-.017-.042-.026-.085-.026-.132s.009-.091.026-.132c.017-.041.041-.078.071-.109.031-.031.067-.056.109-.073.042-.018.087-.027.136-.027.048,0,.093.009.134.027.041.018.077.042.107.073.031.031.055.068.072.109.017.042.025.085.025.132Z"/>
      <path class="uuid-d8cf1796-1d1e-4dac-afda-7d8ae6c94c8f" d="m69.819,145.614h-.6l-.86-2.167h.581l.45,1.229.134.397.132-.38.455-1.246h.559l-.852,2.167Z"/>
      <path class="uuid-d8cf1796-1d1e-4dac-afda-7d8ae6c94c8f" d="m72.57,145.614l-.013-.284c-.045.048-.093.093-.143.133s-.104.076-.165.105c-.06.03-.125.053-.195.069-.07.017-.147.024-.231.024-.111,0-.208-.016-.292-.049s-.154-.078-.211-.137c-.057-.058-.1-.128-.129-.211s-.044-.174-.044-.273c0-.103.022-.197.065-.284.043-.086.109-.161.198-.224.089-.063.2-.112.333-.147.133-.036.289-.053.468-.053h.284v-.13c0-.055-.008-.105-.023-.15-.016-.044-.041-.083-.076-.114-.035-.032-.08-.056-.136-.073s-.124-.025-.205-.025c-.128,0-.254.014-.379.043s-.245.07-.362.123v-.416c.104-.041.224-.075.36-.102.136-.027.277-.041.423-.041.161,0,.299.015.414.046.115.03.21.076.285.137.075.062.13.138.166.229.035.092.053.199.053.321v1.48h-.446Zm-.075-.958h-.318c-.088,0-.163.009-.224.026s-.111.041-.149.07-.066.064-.084.104c-.018.039-.026.081-.026.125,0,.088.028.156.085.202.057.046.134.069.232.069.072,0,.148-.026.226-.079.078-.053.164-.128.258-.227v-.29Z"/>
      <path class="uuid-d8cf1796-1d1e-4dac-afda-7d8ae6c94c8f" d="m75.602,145.593c-.094.021-.188.039-.284.051s-.186.019-.271.019c-.142,0-.265-.015-.368-.044s-.188-.076-.256-.137c-.068-.061-.118-.139-.149-.233-.032-.095-.048-.208-.048-.338v-1.058h-.583v-.405h.583v-.555l.533-.139v.693h.843v.405h-.843v1.02c0,.124.028.217.085.281.057.063.152.095.286.095.085,0,.168-.007.25-.021.082-.014.155-.031.222-.049v.416Z"/>
      <path class="uuid-d8cf1796-1d1e-4dac-afda-7d8ae6c94c8f" d="m78.306,144.364c0,.035,0,.082-.003.139-.002.057-.005.11-.01.16h-1.425c0,.095.015.179.044.252.029.072.07.133.124.182.054.049.118.086.192.112.074.025.157.038.249.038.105,0,.218-.008.338-.024.12-.016.245-.043.375-.08v.414c-.056.016-.116.03-.181.042-.065.013-.132.024-.201.034-.068.01-.137.018-.207.022s-.137.007-.203.007c-.165,0-.313-.023-.444-.07s-.242-.116-.333-.208c-.091-.092-.161-.205-.209-.34-.048-.135-.072-.292-.072-.469,0-.176.024-.337.072-.481.048-.145.117-.268.205-.371.088-.104.195-.183.321-.239s.267-.084.421-.084c.154,0,.29.023.408.071s.217.114.296.199c.08.085.14.188.182.305.041.118.062.248.062.389Zm-.529-.075c.001-.085-.009-.16-.032-.223s-.054-.116-.093-.157c-.039-.042-.084-.072-.137-.092-.052-.02-.107-.03-.167-.03-.131,0-.238.043-.322.131-.084.087-.134.21-.149.37h.9Z"/>
      <path class="uuid-d8cf1796-1d1e-4dac-afda-7d8ae6c94c8f" d="m79.383,146.073h-.505l1.489-3.473h.508l-1.491,3.473Z"/>
      <path class="uuid-d8cf1796-1d1e-4dac-afda-7d8ae6c94c8f" d="m82.983,145.614l-.013-.284c-.045.048-.093.093-.143.133s-.104.076-.165.105c-.06.03-.125.053-.195.069-.07.017-.147.024-.231.024-.111,0-.208-.016-.292-.049s-.154-.078-.211-.137c-.057-.058-.1-.128-.129-.211s-.044-.174-.044-.273c0-.103.022-.197.065-.284.043-.086.109-.161.198-.224.089-.063.2-.112.333-.147.133-.036.289-.053.468-.053h.284v-.13c0-.055-.008-.105-.023-.15-.016-.044-.041-.083-.076-.114-.035-.032-.08-.056-.136-.073s-.124-.025-.205-.025c-.128,0-.254.014-.379.043s-.245.07-.362.123v-.416c.104-.041.224-.075.36-.102.136-.027.277-.041.423-.041.161,0,.299.015.414.046.115.03.21.076.285.137.075.062.13.138.166.229.035.092.053.199.053.321v1.48h-.446Zm-.075-.958h-.318c-.088,0-.163.009-.224.026s-.111.041-.149.07-.066.064-.084.104c-.018.039-.026.081-.026.125,0,.088.028.156.085.202.057.046.134.069.232.069.072,0,.148-.026.226-.079.078-.053.164-.128.258-.227v-.29Z"/>
      <path class="uuid-d8cf1796-1d1e-4dac-afda-7d8ae6c94c8f" d="m86.173,143.042c-.062-.02-.137-.037-.223-.05-.086-.014-.174-.021-.264-.021-.061,0-.118.008-.171.025-.052.016-.098.042-.136.078-.039.036-.069.081-.091.136-.022.055-.033.121-.033.199v.35h.852v.405h-.852v1.451h-.524v-1.451h-.629v-.405h.629v-.329c0-.154.022-.286.067-.396.045-.11.108-.2.19-.271.082-.07.18-.122.295-.154s.244-.049.386-.049c.094,0,.183.006.268.018.085.012.164.027.236.044v.42Z"/>
      <path class="uuid-d8cf1796-1d1e-4dac-afda-7d8ae6c94c8f" d="m88.807,143.042c-.062-.02-.137-.037-.223-.05-.086-.014-.174-.021-.264-.021-.061,0-.118.008-.171.025-.052.016-.098.042-.136.078-.039.036-.069.081-.091.136-.022.055-.033.121-.033.199v.35h.852v.405h-.852v1.451h-.524v-1.451h-.629v-.405h.629v-.329c0-.154.022-.286.067-.396.045-.11.108-.2.19-.271.082-.07.18-.122.295-.154s.244-.049.386-.049c.094,0,.183.006.268.018.085.012.164.027.236.044v.42Z"/>
      <path class="uuid-d8cf1796-1d1e-4dac-afda-7d8ae6c94c8f" d="m91.352,144.364c0,.035,0,.082-.003.139-.002.057-.005.11-.01.16h-1.425c0,.095.015.179.044.252.029.072.07.133.124.182.054.049.118.086.192.112.074.025.157.038.249.038.105,0,.218-.008.338-.024.12-.016.245-.043.375-.08v.414c-.056.016-.116.03-.181.042-.065.013-.132.024-.201.034-.068.01-.137.018-.207.022s-.137.007-.203.007c-.165,0-.313-.023-.444-.07s-.242-.116-.333-.208c-.091-.092-.161-.205-.209-.34-.048-.135-.072-.292-.072-.469,0-.176.024-.337.072-.481.048-.145.117-.268.205-.371.088-.104.195-.183.321-.239s.267-.084.421-.084c.154,0,.29.023.408.071s.217.114.296.199c.08.085.14.188.182.305.041.118.062.248.062.389Zm-.529-.075c.001-.085-.009-.16-.032-.223s-.054-.116-.093-.157c-.039-.042-.084-.072-.137-.092-.052-.02-.107-.03-.167-.03-.131,0-.238.043-.322.131-.084.087-.134.21-.149.37h.9Z"/>
      <path class="uuid-d8cf1796-1d1e-4dac-afda-7d8ae6c94c8f" d="m93.822,145.531c-.103.041-.208.072-.318.091-.109.02-.224.03-.344.03-.172,0-.326-.023-.463-.071-.136-.047-.252-.116-.348-.209-.095-.092-.168-.207-.219-.343-.05-.137-.076-.294-.076-.474,0-.174.027-.331.082-.472.055-.141.132-.261.231-.36.1-.1.22-.176.36-.23s.296-.081.468-.081c.141,0,.259.007.355.022.096.015.183.034.259.056v.506c-.088-.044-.184-.078-.287-.103-.103-.024-.201-.036-.293-.036-.097,0-.184.017-.26.049-.077.033-.142.079-.194.137-.053.059-.093.129-.121.212-.028.083-.042.174-.042.274,0,.104.015.197.045.28.03.083.072.152.127.21.055.058.121.102.197.132s.162.046.256.046c.045,0,.094-.003.144-.01s.101-.016.151-.027c.051-.012.101-.026.149-.042.049-.016.095-.033.138-.051v.463Z"/>
      <path class="uuid-d8cf1796-1d1e-4dac-afda-7d8ae6c94c8f" d="m96.459,145.593c-.094.021-.188.039-.284.051s-.186.019-.271.019c-.142,0-.265-.015-.368-.044s-.188-.076-.256-.137c-.068-.061-.118-.139-.149-.233-.032-.095-.048-.208-.048-.338v-1.058h-.583v-.405h.583v-.555l.533-.139v.693h.843v.405h-.843v1.02c0,.124.028.217.085.281.057.063.152.095.286.095.085,0,.168-.007.25-.021.082-.014.155-.031.222-.049v.416Z"/>
    </g>
    <path class="uuid-d8cf1796-1d1e-4dac-afda-7d8ae6c94c8f" d="m66.038,83.695c-.06.09-.09.18-.12.269-.03.09-.09.18-.12.239-.09.12-.18.209-.239.299-.09.06-.18.12-.269.12-.09.03-.18.03-.269,0-.09,0-.209-.06-.299-.12l-.898-.569-.329.479-.329-.209.299-.509-.449-.299.15-.509.599.359.449-.688.359.209-.479.718.868.539c.12.06.209.09.299.09.06-.03.15-.09.209-.209.06-.06.09-.15.12-.209.03-.09.06-.15.09-.209m-1.137,2.394c0,.12-.03.239-.09.329-.03.09-.09.209-.15.299-.09.15-.209.269-.299.359-.12.09-.239.15-.389.18-.12.03-.239.03-.389,0-.15-.03-.299-.09-.449-.18-.15-.12-.269-.209-.359-.329s-.15-.269-.18-.389c-.03-.15-.03-.299,0-.419.03-.15.09-.299.18-.449.09-.12.15-.209.209-.299.09-.06.15-.12.209-.18l.419.269c-.09.06-.18.12-.239.18-.09.09-.15.15-.18.239-.06.09-.09.15-.12.239,0,.09,0,.18.03.239,0,.09.06.15.09.209.06.09.15.15.209.18.09.06.18.12.269.12.09.03.18.03.239,0,.09,0,.15-.03.239-.09.06-.03.12-.12.15-.18.03-.03.06-.09.09-.12.03-.06.03-.12.06-.15,0-.06.03-.09.03-.15.03-.06.03-.09.03-.15l.389.239Zm-2.664,1.855c-.06-.03-.12-.06-.18-.09h-.209c-.03,0-.09.03-.15.06-.03.03-.06.09-.09.12-.09.12-.12.239-.09.359.03.12.12.209.239.329l.479-.778Zm.359-.389c.03.03.06.03.12.06.03.06.09.09.12.12l-.748,1.197c.06.03.15.09.209.09.09.03.15,0,.239,0,.06-.03.12-.06.18-.12.06-.03.12-.09.18-.18.06-.09.12-.18.15-.299.06-.09.12-.209.15-.359l.329.239c0,.06-.03.09-.06.18,0,.06-.03.12-.06.18s-.06.12-.09.18c-.03.06-.09.12-.12.18-.09.15-.18.239-.299.329-.09.09-.209.15-.359.18-.12.03-.239.03-.389-.03-.15-.03-.269-.09-.419-.18-.15-.09-.299-.209-.389-.329s-.15-.239-.18-.359c-.06-.12-.06-.269-.03-.389,0-.15.06-.269.15-.419.09-.12.18-.239.269-.299.12-.06.209-.12.329-.15.12,0,.239,0,.359.03.12.03.239.06.359.15Zm-2.484,1.437c-.06.03-.12.09-.18.15-.03.06-.09.15-.15.209-.03.06-.06.12-.06.15-.03.06-.03.12,0,.18,0,.03.03.09.06.15.03.03.09.09.15.12l.299.18.449-.688.329.209-.449.718,1.227.778-.299.449-1.197-.778-.359.509-.329-.209.329-.539-.269-.18c-.12-.06-.239-.15-.299-.269-.06-.09-.12-.18-.12-.299-.03-.09,0-.209.03-.329.03-.12.09-.239.15-.359.06-.06.12-.15.18-.209.03-.06.09-.12.15-.18l.359.239Zm-1.437,2.215l-.15.15c-.06.06-.12.15-.15.209l-.09.18v.15c0,.06.03.09.06.15.03.03.09.09.15.12l.299.209.449-.718.359.209-.449.718,1.197.778-.269.449-1.227-.778-.329.509-.359-.209.359-.539-.299-.18c-.12-.06-.209-.15-.269-.269-.09-.09-.12-.18-.15-.299,0-.09,0-.209.03-.329.03-.12.09-.239.18-.359.06-.06.09-.15.15-.209s.12-.12.18-.18l.329.239Zm-.389,3.621l-.18.269c-.03.06-.06.15-.09.209s-.03.09-.03.15c.03.06.03.09.06.12.03.03.06.06.09.09.06.06.15.06.209.03.06,0,.12-.06.18-.15.03-.06.06-.12.06-.239,0-.09-.03-.209-.06-.329l-.239-.15Zm.838.449l-.239-.15c.03.06.03.15.03.209.03.06.03.12,0,.18,0,.06,0,.15-.03.209s-.06.15-.12.209c-.06.09-.12.15-.18.209-.09.06-.15.09-.239.12h-.239c-.09-.03-.18-.06-.269-.12s-.15-.12-.18-.209c-.06-.09-.09-.18-.09-.299,0-.09,0-.209.06-.359.03-.12.09-.269.209-.419l.15-.239-.12-.06c-.06-.03-.09-.06-.15-.06-.03-.03-.09-.03-.12,0-.06,0-.09.03-.15.06-.03.06-.09.09-.12.18-.06.09-.12.209-.18.329-.03.12-.06.239-.09.359l-.329-.209c0-.12.03-.239.09-.359.06-.12.12-.239.209-.389.09-.12.15-.239.239-.299.09-.09.18-.15.269-.18s.209-.03.299,0c.09,0,.18.06.299.12l1.227.778-.239.389Zm-1.526,3.292l-.299.419-2.125-3.142.299-.419,2.125,3.142Zm-2.394.389c-.06-.06-.12-.09-.18-.09-.09-.03-.15-.03-.209-.03-.03.03-.09.03-.15.09-.03.03-.06.06-.09.12-.09.09-.12.209-.09.329.03.12.12.239.239.329l.479-.748Zm.359-.419c.03.03.06.06.12.09.03.03.09.06.12.09l-.748,1.197c.06.06.15.09.209.09.09.03.15.03.239,0l.18-.09c.06-.06.12-.12.18-.209.06-.09.12-.18.15-.299.06-.09.12-.209.15-.359l.329.239c0,.06-.03.12-.06.18,0,.06-.03.12-.06.18-.03.06-.06.12-.09.18s-.09.12-.12.18c-.09.15-.18.269-.299.329-.09.09-.209.15-.359.18-.12.03-.239.03-.389,0-.15-.03-.269-.09-.419-.209-.15-.09-.299-.18-.389-.299-.09-.12-.15-.239-.18-.389-.06-.12-.06-.269-.03-.389,0-.15.06-.269.15-.419.09-.12.18-.209.269-.299.12-.06.209-.12.329-.12.12-.03.239-.03.359,0,.12.03.239.09.359.15Zm-.419,2.933c-.03.09-.06.18-.12.269-.03.09-.09.18-.12.239-.09.12-.15.209-.239.299-.09.06-.18.12-.239.15h-.299c-.09-.03-.18-.09-.299-.15l-.898-.569-.299.479-.359-.209.329-.509-.479-.299.18-.509.569.359.449-.688.359.209-.449.718.838.539c.12.06.209.09.299.09.09-.03.15-.09.239-.209.03-.06.09-.12.12-.209.03-.09.06-.15.06-.209l.359.209Zm-2.454,2.125l-.18.269c-.06.06-.09.15-.09.209-.03.06-.03.12-.03.15,0,.06,0,.09.03.12.03.06.06.09.09.09.09.06.15.06.209.06.09-.03.15-.09.209-.18.03-.06.06-.12.03-.209,0-.12,0-.209-.03-.359l-.239-.15Zm.838.449l-.239-.15c0,.09.03.15.03.209v.18c0,.09-.03.15-.06.209-.03.06-.06.15-.09.209-.06.09-.12.18-.209.209-.06.06-.15.09-.209.12h-.269c-.09-.03-.15-.06-.239-.12-.09-.06-.15-.12-.209-.209s-.09-.18-.09-.299c0-.09.03-.209.06-.359.03-.12.12-.269.209-.419l.15-.239-.12-.06c-.03-.03-.09-.06-.12-.06h-.15c-.03,0-.09.03-.12.06-.06.06-.09.12-.15.18-.06.09-.12.209-.15.329-.06.12-.09.239-.09.389l-.359-.239c.03-.12.06-.239.12-.359.03-.12.09-.239.18-.359.09-.15.18-.269.269-.329.09-.09.18-.15.269-.18s.18-.03.269,0c.09,0,.209.06.299.12l1.257.808-.239.359Zm-1.496,2.334l-.299.479-2.304-.419.329-.509,1.257.299.419.09-.269-.299-.778-1.077.299-.449,1.347,1.885Zm-3.142,1.676l-.329.509-.359-.239.628-.958,1.466.958.359-.539.329.239-.988,1.556-.359-.239.389-.569-1.137-.718Zm-.539-1.047c.03.03.06.06.09.09.03.06.06.09.06.12v.15c0,.03-.03.09-.06.12s-.06.06-.09.09c-.03.03-.06.06-.12.06h-.12c-.06,0-.09-.03-.12-.06-.06,0-.09-.03-.12-.09,0-.03-.03-.06-.03-.12-.03-.03-.03-.06-.03-.12.03-.03.03-.09.06-.12.03-.06.06-.09.09-.12.06,0,.09-.03.12-.03.06-.03.09-.03.15,0,.03,0,.09,0,.12.03Zm1.167,3.262c-.03.09-.06.18-.09.239-.06.09-.09.18-.15.239-.06.12-.15.239-.239.299-.06.06-.15.12-.239.15-.09.03-.18,0-.269,0-.12-.03-.209-.09-.329-.15l-.868-.569-.329.479-.329-.209.299-.479-.449-.299.15-.539.599.389.449-.718.329.209-.449.718.868.539c.09.06.18.09.269.09.09-.03.18-.09.239-.18.06-.09.09-.15.12-.239.03-.06.06-.15.09-.209l.329.239Zm-1.466,2.185c-.03.09-.06.209-.09.299-.03.12-.09.209-.15.299-.09.15-.209.269-.329.359-.09.09-.239.15-.359.18-.12.03-.269.03-.389,0-.15-.03-.299-.09-.449-.18s-.269-.209-.359-.329c-.09-.12-.15-.239-.18-.389-.03-.15-.03-.269,0-.419.03-.15.09-.299.18-.449.09-.12.15-.209.209-.299l.18-.18.449.269c-.09.06-.18.12-.239.209-.09.06-.15.15-.209.209-.03.09-.06.18-.09.239v.239c.03.09.06.15.12.239.06.06.12.12.209.18.09.03.18.09.269.09.09.03.15.03.239.03.09-.03.15-.06.209-.12.09-.03.15-.09.18-.18.03-.03.06-.09.09-.12,0-.06.03-.09.06-.15,0-.06.03-.09.03-.15s.03-.09.03-.15l.389.269Zm-2.394,2.095l-.18.269c-.03.09-.06.15-.09.209-.03.06-.03.12-.03.18.03.03.03.09.06.12s.06.06.09.09c.06.03.15.06.209.03.06-.03.12-.06.18-.15.03-.06.06-.15.06-.239s-.03-.209-.06-.329l-.239-.18Zm.838.479l-.239-.15c.03.06.03.12.03.18.03.06.03.15,0,.209,0,.06,0,.12-.03.18-.03.09-.06.15-.12.209-.06.12-.12.18-.18.239-.09.06-.15.09-.239.09-.09.03-.15.03-.239,0s-.18-.06-.269-.12c-.09-.03-.15-.12-.18-.209-.06-.06-.09-.18-.09-.269,0-.12,0-.239.06-.359.03-.15.09-.269.209-.419l.15-.239-.12-.09c-.06-.03-.09-.03-.15-.06h-.12c-.06.03-.09.06-.15.09-.03.03-.09.09-.12.15-.06.12-.12.239-.18.359-.03.12-.06.239-.09.359l-.329-.209c0-.12.03-.239.09-.359.06-.15.12-.269.209-.389.09-.15.15-.239.239-.329s.18-.12.269-.15c.09-.03.209-.06.299-.03s.18.06.299.12l1.227.808-.239.389Z"/>
    <g>
      <path class="uuid-b8d6e64c-4bc1-4129-a003-631d18a97f0e" d="m142.016,173.177l-.082-2.527-.031-1.009-.215.685-.496,1.521h-.527l-.448-1.521-.188-.685-.024.988-.075,2.548h-.715l.219-4.469h.951l.393,1.269.188.714.188-.673.414-1.31h.968l.222,4.469h-.742Z"/>
      <path class="uuid-b8d6e64c-4bc1-4129-a003-631d18a97f0e" d="m146.588,171.174c0,.058-.001.131-.005.223-.003.091-.009.177-.016.256h-2.284c0,.153.023.287.07.404.046.116.113.213.198.292.085.078.188.139.308.18s.252.062.398.062c.168,0,.349-.014.542-.04.192-.025.393-.068.6-.128v.663c-.089.025-.186.048-.291.068-.105.021-.212.039-.322.056-.109.016-.22.027-.332.035s-.22.013-.325.013c-.265,0-.501-.038-.711-.113-.209-.075-.388-.187-.533-.333-.146-.147-.258-.329-.335-.546-.077-.217-.116-.467-.116-.752,0-.283.039-.54.116-.771.078-.231.187-.43.329-.595.141-.165.312-.293.515-.383.202-.09.427-.136.675-.136.246,0,.464.039.653.115.189.076.348.183.476.319.127.137.225.3.291.489s.099.396.099.622Zm-.848-.119c.002-.137-.015-.256-.051-.357-.036-.102-.086-.186-.148-.252-.063-.065-.136-.115-.219-.146-.083-.032-.172-.048-.268-.048-.21,0-.382.07-.517.21-.134.141-.214.338-.239.594h1.443Z"/>
      <path class="uuid-b8d6e64c-4bc1-4129-a003-631d18a97f0e" d="m150.453,173.143c-.15.034-.302.062-.455.082-.153.021-.298.031-.435.031-.228,0-.424-.024-.59-.072-.165-.048-.302-.121-.41-.219-.108-.098-.188-.223-.239-.375-.051-.151-.077-.332-.077-.541v-1.696h-.934v-.65h.934v-.889l.855-.223v1.111h1.351v.65h-1.351v1.634c0,.199.045.349.137.45s.244.152.458.152c.137,0,.27-.012.4-.034.13-.023.248-.049.355-.079v.667Z"/>
      <path class="uuid-b8d6e64c-4bc1-4129-a003-631d18a97f0e" d="m153.79,173.177l-.021-.455c-.073.078-.149.149-.229.214-.08.065-.167.121-.263.169s-.2.085-.313.111-.236.04-.371.04c-.178,0-.334-.026-.468-.079-.135-.053-.248-.125-.338-.219-.091-.094-.16-.206-.207-.339-.047-.132-.07-.278-.07-.438,0-.164.035-.315.104-.455.069-.139.175-.259.318-.358.143-.101.32-.18.534-.236.213-.057.463-.085.75-.085h.455v-.209c0-.089-.013-.169-.038-.241-.025-.071-.065-.133-.121-.183-.056-.051-.128-.089-.217-.116s-.198-.041-.328-.041c-.206,0-.408.023-.607.07-.2.046-.393.112-.58.196v-.667c.166-.066.358-.121.576-.164.217-.043.444-.065.679-.065.257,0,.479.025.663.074s.337.122.457.221c.12.098.208.22.265.367s.085.318.085.515v2.373h-.715Zm-.12-1.535h-.509c-.142,0-.261.014-.359.041-.098.027-.178.064-.239.112s-.106.104-.135.166c-.029.062-.043.13-.043.2,0,.142.045.249.137.323s.215.111.373.111c.116,0,.237-.042.362-.127.125-.084.263-.205.414-.362v-.465Z"/>
      <path class="uuid-b8d6e64c-4bc1-4129-a003-631d18a97f0e" d="m158.763,171.379c0,.319-.045.595-.135.828-.09.232-.216.426-.376.579-.161.154-.351.268-.569.342s-.457.111-.714.111c-.253,0-.489-.019-.707-.057-.217-.037-.425-.088-.624-.152v-4.685h.834v1.136l-.034.684c.125-.162.272-.292.439-.39s.369-.147.604-.147c.205,0,.388.041.547.124.159.082.293.198.401.35.108.152.191.336.248.551.057.216.085.458.085.727Zm-.875.034c0-.191-.014-.354-.041-.488-.027-.135-.066-.245-.118-.332s-.114-.15-.188-.189c-.074-.04-.159-.061-.255-.061-.142,0-.276.058-.405.171-.129.114-.265.27-.409.466v1.518c.066.025.147.046.245.062.097.017.195.024.296.024.132,0,.252-.027.36-.082.108-.055.201-.133.277-.232.076-.101.135-.224.176-.368s.062-.307.062-.487Z"/>
      <path class="uuid-b8d6e64c-4bc1-4129-a003-631d18a97f0e" d="m162.791,171.413c0,.273-.039.524-.116.751s-.189.421-.335.583c-.146.162-.325.287-.537.376s-.454.134-.725.134c-.258,0-.488-.038-.691-.113s-.375-.188-.516-.337c-.142-.149-.25-.336-.325-.561s-.113-.486-.113-.785c0-.275.04-.526.118-.752s.191-.418.338-.578c.147-.159.327-.283.539-.371s.451-.132.718-.132c.26,0,.491.039.694.115.203.076.375.189.517.34.141.15.249.337.323.56.074.222.111.479.111.771Zm-.869.021c0-.36-.068-.631-.203-.812-.136-.182-.336-.272-.6-.272-.146,0-.271.028-.373.086-.103.057-.187.135-.253.234-.066.099-.114.215-.145.347-.031.132-.046.273-.046.424,0,.362.073.636.219.819s.345.275.599.275c.139,0,.26-.028.362-.084s.186-.134.25-.232c.064-.1.112-.216.144-.351.032-.135.048-.279.048-.435Z"/>
      <path class="uuid-b8d6e64c-4bc1-4129-a003-631d18a97f0e" d="m164.809,168.996h-.981v-.65h1.836v4.183h1.002v.649h-2.958v-.649h1.101v-3.532Z"/>
      <path class="uuid-b8d6e64c-4bc1-4129-a003-631d18a97f0e" d="m168.835,170.353h-.981v-.65h1.836v2.825h1.002v.649h-2.958v-.649h1.101v-2.175Zm.923-1.601c0,.075-.014.146-.041.212s-.065.124-.114.173c-.049.049-.107.088-.173.116-.066.028-.138.043-.215.043-.078,0-.15-.015-.217-.043s-.125-.067-.174-.116c-.049-.049-.087-.106-.115-.173s-.041-.137-.041-.212.014-.146.041-.212.065-.124.115-.175c.049-.05.107-.089.174-.117.067-.029.14-.043.217-.043.077,0,.149.014.215.043.066.028.124.067.173.117.049.051.087.108.114.175s.041.137.041.212Z"/>
      <path class="uuid-b8d6e64c-4bc1-4129-a003-631d18a97f0e" d="m174.604,172.155c0,.198-.044.367-.132.508-.087.141-.204.254-.349.342-.145.088-.309.151-.492.191-.184.04-.371.061-.562.061-.255,0-.486-.013-.691-.036-.205-.024-.399-.059-.582-.104v-.752c.214.089.428.153.642.192.213.04.414.061.604.061.219,0,.382-.035.49-.104.108-.069.163-.16.163-.271,0-.053-.011-.101-.034-.144-.023-.044-.065-.085-.128-.125-.062-.04-.151-.081-.265-.123-.114-.042-.263-.09-.448-.143-.171-.048-.321-.102-.45-.162-.128-.061-.235-.132-.319-.214-.084-.082-.148-.177-.19-.285s-.063-.235-.063-.382c0-.141.032-.274.096-.399.063-.126.159-.235.285-.33s.285-.169.474-.225c.189-.055.411-.082.664-.082.219,0,.413.012.581.034.169.023.318.048.448.075v.681c-.198-.063-.385-.108-.559-.135s-.347-.039-.518-.039-.309.03-.412.092c-.104.062-.156.147-.156.257,0,.053.01.099.031.14s.061.081.122.12.145.079.253.121c.108.043.251.089.429.139.201.057.369.118.506.183.137.065.247.139.33.221.083.082.143.176.18.28.036.105.055.225.055.359Z"/>
      <path class="uuid-b8d6e64c-4bc1-4129-a003-631d18a97f0e" d="m178.216,173.177v-2.366c0-.087-.002-.162-.007-.228-.005-.064-.014-.119-.027-.162-.014-.044-.034-.076-.06-.098s-.062-.032-.108-.032c-.07,0-.14.048-.208.144s-.146.259-.232.489v2.253h-.715v-2.366c0-.087-.002-.162-.007-.228-.004-.064-.014-.119-.027-.162-.014-.044-.034-.076-.062-.098s-.063-.032-.109-.032c-.059,0-.125.048-.198.144s-.154.259-.243.489v2.253h-.722v-3.475h.619l.014.507c.05-.103.1-.19.15-.264.05-.073.104-.133.161-.18s.118-.08.183-.101.138-.031.22-.031c.194,0,.341.051.443.152s.159.242.173.423c.055-.103.109-.19.163-.264.053-.073.109-.133.167-.18s.121-.08.188-.101c.067-.021.142-.031.224-.031.253,0,.44.089.561.266s.181.438.181.784v2.493h-.721Z"/>
    </g>
    <g>
      <path class="uuid-b8d6e64c-4bc1-4129-a003-631d18a97f0e" d="m17.248,21.955l-.082-2.527-.031-1.009-.215.684-.496,1.521h-.527l-.448-1.521-.188-.684-.024.988-.075,2.547h-.715l.219-4.469h.951l.393,1.269.188.715.188-.674.414-1.31h.968l.222,4.469h-.742Z"/>
      <path class="uuid-b8d6e64c-4bc1-4129-a003-631d18a97f0e" d="m21.821,19.951c0,.057-.001.131-.005.222-.003.091-.009.177-.016.257h-2.284c0,.153.023.287.07.403.046.116.113.214.198.292s.188.138.308.179.252.062.398.062c.168,0,.349-.013.542-.039.192-.026.393-.069.6-.128v.664c-.089.025-.186.048-.291.068-.105.021-.212.039-.322.055s-.22.028-.332.036c-.112.008-.22.012-.325.012-.265,0-.501-.038-.711-.113-.209-.075-.388-.187-.533-.333-.146-.147-.258-.329-.335-.545-.077-.216-.116-.467-.116-.752,0-.283.039-.54.116-.771.078-.231.187-.43.329-.595.141-.166.312-.293.515-.383.202-.09.427-.135.675-.135.246,0,.464.038.653.115.189.076.348.183.476.319.127.137.225.3.291.489.066.189.099.396.099.622Zm-.848-.12c.002-.137-.015-.256-.051-.357-.036-.101-.086-.185-.148-.251-.063-.066-.136-.115-.219-.147-.083-.032-.172-.048-.268-.048-.21,0-.382.07-.517.21-.134.14-.214.338-.239.593h1.443Z"/>
      <path class="uuid-b8d6e64c-4bc1-4129-a003-631d18a97f0e" d="m25.685,21.921c-.15.034-.302.062-.455.082-.153.021-.298.031-.435.031-.228,0-.424-.024-.59-.072-.165-.048-.302-.121-.41-.219-.108-.098-.188-.223-.239-.375-.051-.151-.077-.332-.077-.542v-1.696h-.934v-.65h.934v-.889l.855-.222v1.111h1.351v.65h-1.351v1.634c0,.198.045.348.137.45s.244.152.458.152c.137,0,.27-.011.4-.034.13-.022.248-.049.355-.079v.667Z"/>
      <path class="uuid-b8d6e64c-4bc1-4129-a003-631d18a97f0e" d="m29.023,21.955l-.021-.455c-.073.077-.149.148-.229.213s-.167.122-.263.169-.2.085-.313.111c-.113.026-.236.039-.371.039-.178,0-.334-.026-.468-.079-.135-.052-.248-.125-.338-.219-.091-.094-.16-.207-.207-.338-.047-.132-.07-.278-.07-.438,0-.164.035-.315.104-.455.069-.139.175-.259.318-.359.143-.1.32-.179.534-.236.213-.057.463-.085.75-.085h.455v-.208c0-.089-.013-.169-.038-.241s-.065-.133-.121-.183c-.056-.05-.128-.089-.217-.117-.089-.027-.198-.041-.328-.041-.206,0-.408.023-.607.07-.2.047-.393.112-.58.197v-.667c.166-.066.358-.121.576-.164.217-.043.444-.065.679-.065.257,0,.479.024.663.073.185.049.337.123.457.221s.208.221.265.368.085.318.085.515v2.373h-.715Zm-.12-1.535h-.509c-.142,0-.261.014-.359.041-.098.027-.178.065-.239.113s-.106.103-.135.166c-.029.063-.043.129-.043.2,0,.142.045.249.137.323s.215.111.373.111c.116,0,.237-.042.362-.126.125-.084.263-.205.414-.362v-.465Z"/>
      <path class="uuid-b8d6e64c-4bc1-4129-a003-631d18a97f0e" d="m33.996,20.156c0,.319-.045.595-.135.828-.09.232-.216.426-.376.58s-.351.268-.569.342c-.219.074-.457.111-.714.111-.253,0-.489-.019-.707-.056-.217-.038-.425-.088-.624-.152v-4.685h.834v1.135l-.034.684c.125-.162.272-.292.439-.39s.369-.147.604-.147c.205,0,.388.041.547.123.159.082.293.199.401.351.108.151.191.335.248.55s.085.458.085.727Zm-.875.034c0-.191-.014-.354-.041-.489-.027-.134-.066-.245-.118-.332-.051-.087-.114-.15-.188-.19-.074-.04-.159-.06-.255-.06-.142,0-.276.057-.405.171-.129.114-.265.269-.409.465v1.518c.066.025.147.046.245.062.097.016.195.024.296.024.132,0,.252-.027.36-.082.108-.055.201-.132.277-.232.076-.1.135-.223.176-.368.041-.145.062-.307.062-.487Z"/>
      <path class="uuid-b8d6e64c-4bc1-4129-a003-631d18a97f0e" d="m38.024,20.191c0,.274-.039.524-.116.751-.078.227-.189.421-.335.583-.146.162-.325.287-.537.376s-.454.133-.725.133c-.258,0-.488-.038-.691-.113s-.375-.188-.516-.337c-.142-.149-.25-.336-.325-.561s-.113-.486-.113-.785c0-.276.04-.527.118-.752s.191-.418.338-.578c.147-.159.327-.283.539-.371.212-.088.451-.132.718-.132.26,0,.491.038.694.115.203.076.375.189.517.34.141.15.249.337.323.559.074.222.111.479.111.771Zm-.869.021c0-.36-.068-.631-.203-.812-.136-.181-.336-.271-.6-.271-.146,0-.271.028-.373.085-.103.057-.187.135-.253.234s-.114.215-.145.347c-.031.132-.046.273-.046.424,0,.363.073.636.219.819s.345.275.599.275c.139,0,.26-.028.362-.083s.186-.133.25-.232.112-.216.144-.351c.032-.135.048-.279.048-.435Z"/>
      <path class="uuid-b8d6e64c-4bc1-4129-a003-631d18a97f0e" d="m40.042,17.773h-.981v-.649h1.836v4.182h1.002v.65h-2.958v-.65h1.101v-3.532Z"/>
      <path class="uuid-b8d6e64c-4bc1-4129-a003-631d18a97f0e" d="m44.068,19.131h-.981v-.65h1.836v2.824h1.002v.65h-2.958v-.65h1.101v-2.174Zm.923-1.601c0,.075-.014.146-.041.212-.027.066-.065.124-.114.173-.049.049-.107.088-.173.116-.066.029-.138.043-.215.043-.078,0-.15-.014-.217-.043-.067-.028-.125-.067-.174-.116-.049-.049-.087-.106-.115-.173-.027-.066-.041-.137-.041-.212s.014-.146.041-.212.065-.124.115-.174c.049-.05.107-.089.174-.118.067-.028.14-.042.217-.042.077,0,.149.014.215.042.066.029.124.068.173.118.049.05.087.108.114.174s.041.137.041.212Z"/>
      <path class="uuid-b8d6e64c-4bc1-4129-a003-631d18a97f0e" d="m49.837,20.933c0,.198-.044.368-.132.508-.087.14-.204.254-.349.342-.145.088-.309.152-.492.192-.184.04-.371.06-.562.06-.255,0-.486-.012-.691-.036s-.399-.059-.582-.104v-.752c.214.089.428.153.642.193.213.04.414.06.604.06.219,0,.382-.035.49-.104.108-.069.163-.16.163-.272,0-.052-.011-.1-.034-.144s-.065-.085-.128-.125c-.062-.04-.151-.081-.265-.123-.114-.042-.263-.089-.448-.142-.171-.048-.321-.102-.45-.163-.128-.061-.235-.132-.319-.214-.084-.082-.148-.177-.19-.285-.042-.108-.063-.235-.063-.381,0-.142.032-.275.096-.4.063-.125.159-.235.285-.33.126-.095.285-.169.474-.224.189-.055.411-.082.664-.082.219,0,.413.011.581.034.169.023.318.048.448.075v.681c-.198-.064-.385-.109-.559-.135s-.347-.04-.518-.04-.309.031-.412.093c-.104.062-.156.147-.156.256,0,.052.01.099.031.14s.061.081.122.12.145.079.253.122c.108.042.251.088.429.138.201.057.369.118.506.183.137.065.247.138.33.221.083.082.143.175.18.28.036.105.055.225.055.359Z"/>
      <path class="uuid-b8d6e64c-4bc1-4129-a003-631d18a97f0e" d="m53.449,21.955v-2.366c0-.086-.002-.163-.007-.228-.005-.065-.014-.119-.027-.162-.014-.043-.034-.076-.06-.098s-.062-.033-.108-.033c-.07,0-.14.048-.208.144s-.146.259-.232.489v2.253h-.715v-2.366c0-.086-.002-.163-.007-.228-.004-.065-.014-.119-.027-.162-.014-.043-.034-.076-.062-.098s-.063-.033-.109-.033c-.059,0-.125.048-.198.144s-.154.259-.243.489v2.253h-.722v-3.474h.619l.014.506c.05-.103.1-.19.15-.263.05-.073.104-.133.161-.179.057-.047.118-.081.183-.101s.138-.031.22-.031c.194,0,.341.051.443.152.102.101.159.242.173.422.055-.103.109-.19.163-.263.053-.073.109-.133.167-.179.058-.047.121-.081.188-.101.067-.021.142-.031.224-.031.253,0,.44.088.561.265.121.176.181.438.181.785v2.493h-.721Z"/>
    </g>
    <polyline class="uuid-bd8b90e1-22c7-40c3-9b2f-a4eeb66a4fa6" points="24.948 29.796 26.833 29.796 26.833 25.307 30.574 25.307 30.574 29.796 32.46 29.796 28.689 33.567"/>
    <polygon class="uuid-1b04f340-9b7a-49ac-af88-a7dfff52117c" points="24.948 29.796 26.833 29.796 26.833 25.307 30.574 25.307 30.574 29.796 32.46 29.796 28.689 33.567 24.948 29.796"/>
    <polyline class="uuid-bd8b90e1-22c7-40c3-9b2f-a4eeb66a4fa6" points="45.717 29.048 43.832 29.048 43.832 33.567 40.091 33.567 40.091 29.048 38.236 29.048 41.977 25.307"/>
    <polygon class="uuid-1b04f340-9b7a-49ac-af88-a7dfff52117c" points="45.717 29.048 43.832 29.048 43.832 33.567 40.091 33.567 40.091 29.048 38.236 29.048 41.977 25.307 45.717 29.048"/>
    <polyline class="uuid-bd8b90e1-22c7-40c3-9b2f-a4eeb66a4fa6" points="147.23 162.524 149.086 162.524 149.086 158.035 152.857 158.035 152.857 162.524 154.712 162.524 150.971 166.265"/>
    <polygon class="uuid-1b04f340-9b7a-49ac-af88-a7dfff52117c" points="147.23 162.524 149.086 162.524 149.086 158.035 152.857 158.035 152.857 162.524 154.712 162.524 150.971 166.265 147.23 162.524"/>
    <polyline class="uuid-bd8b90e1-22c7-40c3-9b2f-a4eeb66a4fa6" points="168 161.775 166.115 161.775 166.115 166.265 162.374 166.265 162.374 161.775 160.489 161.775 164.259 158.035"/>
    <polygon class="uuid-1b04f340-9b7a-49ac-af88-a7dfff52117c" points="168 161.775 166.115 161.775 166.115 166.265 162.374 166.265 162.374 161.775 160.489 161.775 164.259 158.035 168 161.775"/>
    <circle class="uuid-2b123dc0-368b-45ba-8e93-6ea97c1916e7" cx="34.195" cy="7.859" r="7.422"/>
    <circle class="uuid-2b123dc0-368b-45ba-8e93-6ea97c1916e7" cx="158.723" cy="182.814" r="7.422"/>
  </g>
</svg>