<?xml version="1.0" encoding="UTF-8"?>
<svg id="uuid-3e6fe5a9-9831-4e08-9186-5086ba4c998a" data-name="图层 2" xmlns="http://www.w3.org/2000/svg" viewBox="0 0 373.094 382.274">
  <defs>
    <style>
      .uuid-ff3e5659-5553-4ec3-915f-54d334a19ed1 {
        fill: #ed7c31;
      }

      .uuid-ff3e5659-5553-4ec3-915f-54d334a19ed1, .uuid-9e88481a-2290-4ca3-9277-37674b5f0337, .uuid-3bf065e9-00b9-4785-bebb-6addc59577cb, .uuid-8dcc829e-6278-46e1-a802-9f45cebfb2e6, .uuid-f4d4168c-025f-4950-bd84-446222f1a633, .uuid-358f409c-06ca-4bd9-8d54-4b8ebd3088c3, .uuid-8f8eb42e-73dd-4864-82ee-8941cdad59d1 {
        stroke-width: 0px;
      }

      .uuid-3bf065e9-00b9-4785-bebb-6addc59577cb {
        fill: #548335;
      }

      .uuid-5066fe04-b0a3-40ea-b56e-fd7551f84620 {
        stroke: #ed7d31;
      }

      .uuid-5066fe04-b0a3-40ea-b56e-fd7551f84620, .uuid-704f332c-b875-462a-8ea7-cdd6209eac1f, .uuid-c3bf41b4-420e-4a9c-b07b-4199c9d55e23, .uuid-c924fc5b-7227-4749-b7f3-c3c1949c780a, .uuid-5eea2e05-0009-42bc-862a-b78c7a5d3bf0 {
        fill: none;
        stroke-miterlimit: 8;
      }

      .uuid-5066fe04-b0a3-40ea-b56e-fd7551f84620, .uuid-704f332c-b875-462a-8ea7-cdd6209eac1f, .uuid-c924fc5b-7227-4749-b7f3-c3c1949c780a, .uuid-5eea2e05-0009-42bc-862a-b78c7a5d3bf0 {
        stroke-width: 1.754px;
      }

      .uuid-5066fe04-b0a3-40ea-b56e-fd7551f84620, .uuid-5eea2e05-0009-42bc-862a-b78c7a5d3bf0 {
        stroke-dasharray: 0 0 7.016 5.262;
      }

      .uuid-8dcc829e-6278-46e1-a802-9f45cebfb2e6 {
        fill: #7e7e7e;
      }

      .uuid-f4d4168c-025f-4950-bd84-446222f1a633 {
        fill: #fff;
        fill-rule: evenodd;
      }

      .uuid-704f332c-b875-462a-8ea7-cdd6209eac1f {
        stroke: #548235;
      }

      .uuid-358f409c-06ca-4bd9-8d54-4b8ebd3088c3 {
        fill: #0070c0;
      }

      .uuid-c3bf41b4-420e-4a9c-b07b-4199c9d55e23 {
        stroke: #7f7f7f;
        stroke-width: 1.096px;
      }

      .uuid-c924fc5b-7227-4749-b7f3-c3c1949c780a {
        stroke: #000;
      }

      .uuid-8f8eb42e-73dd-4864-82ee-8941cdad59d1 {
        fill: #c00000;
      }

      .uuid-5eea2e05-0009-42bc-862a-b78c7a5d3bf0 {
        stroke: #4472c4;
      }
    </style>
  </defs>
  <g id="uuid-5dff4ed3-28d5-4548-a350-4470202277a1" data-name="图层 1">
    <path class="uuid-c924fc5b-7227-4749-b7f3-c3c1949c780a" d="m224.557,276.997c0-8.22,6.66-14.88,14.88-14.88s14.88,6.66,14.88,14.88-6.66,14.88-14.88,14.88-14.88-6.66-14.88-14.88Zm-91.26-126.9c0-8.22,6.66-14.88,14.88-14.88s14.88,6.66,14.88,14.88-6.66,14.88-14.88,14.88-14.88-6.66-14.88-14.88ZM.877,324.817V59.257h371.34v265.56H.877Z"/>
    <path class="uuid-c3bf41b4-420e-4a9c-b07b-4199c9d55e23" d="m151.417,102.337c-.66-4.5,2.76-8.64,7.68-9.24,1.98-.24,4.02.12,5.76,1.08,1.86-3.18,6.12-4.38,9.6-2.7.6.3,1.14.66,1.62,1.08,1.44-2.58,4.92-3.66,7.8-2.34.78.36,1.5.9,2.04,1.5,2.28-2.46,6.36-2.76,9.06-.66,1.14.9,1.92,2.1,2.22,3.42,3.78.96,6,4.5,4.98,7.98-.12.3-.24.54-.36.84,3.06,3.6,2.28,8.76-1.62,11.52-1.26.84-2.7,1.44-4.26,1.62,0,3.84-3.48,6.96-7.74,6.96-1.38,0-2.82-.42-4.02-1.08-1.44,4.32-6.42,6.78-11.16,5.46-1.98-.54-3.72-1.68-4.86-3.3-4.86,2.7-11.16,1.26-14.1-3.18-.06-.06-.06-.12-.12-.18-3.18.36-6.06-1.74-6.42-4.62-.18-1.56.36-3.06,1.56-4.2-2.76-1.5-3.72-4.74-2.1-7.26.96-1.44,2.58-2.4,4.38-2.58l.06-.12Z"/>
    <path class="uuid-c3bf41b4-420e-4a9c-b07b-4199c9d55e23" d="m164.077,132.817c0,.6-.48,1.08-1.08,1.08s-1.08-.48-1.08-1.08.48-1.08,1.08-1.08,1.08.48,1.08,1.08Z"/>
    <path class="uuid-c3bf41b4-420e-4a9c-b07b-4199c9d55e23" d="m165.757,131.497c0,1.2-.96,2.16-2.1,2.16-1.2,0-2.16-.96-2.16-2.16,0-1.14.96-2.1,2.16-2.1,1.14,0,2.1.96,2.1,2.1Z"/>
    <path class="uuid-c3bf41b4-420e-4a9c-b07b-4199c9d55e23" d="m168.457,128.317c0,1.74-1.44,3.18-3.24,3.18-1.74,0-3.18-1.44-3.18-3.18,0-1.8,1.44-3.24,3.18-3.24,1.8,0,3.24,1.44,3.24,3.24Z"/>
    <path class="uuid-c3bf41b4-420e-4a9c-b07b-4199c9d55e23" d="m152.497,112.837c-1.2.12-2.4-.18-3.36-.72"/>
    <path class="uuid-c3bf41b4-420e-4a9c-b07b-4199c9d55e23" d="m155.437,120.637c-.48.12-.96.24-1.44.3"/>
    <path class="uuid-c3bf41b4-420e-4a9c-b07b-4199c9d55e23" d="m168.157,124.357c-.36-.48-.66-1.02-.9-1.56"/>
    <path class="uuid-c3bf41b4-420e-4a9c-b07b-4199c9d55e23" d="m184.537,120.457c-.06.6-.12,1.2-.36,1.74"/>
    <path class="uuid-c3bf41b4-420e-4a9c-b07b-4199c9d55e23" d="m191.617,109.957c2.64,1.2,4.32,3.66,4.32,6.36"/>
    <path class="uuid-c3bf41b4-420e-4a9c-b07b-4199c9d55e23" d="m201.817,103.177c-.42.96-1.08,1.74-1.92,2.4"/>
    <path class="uuid-c3bf41b4-420e-4a9c-b07b-4199c9d55e23" d="m197.197,94.357c.06.36.12.78.06,1.14"/>
    <path class="uuid-c3bf41b4-420e-4a9c-b07b-4199c9d55e23" d="m184.897,93.037c.24-.48.6-1.02.96-1.44"/>
    <path class="uuid-c3bf41b4-420e-4a9c-b07b-4199c9d55e23" d="m175.657,93.757c.12-.48.3-.84.48-1.26"/>
    <path class="uuid-c3bf41b4-420e-4a9c-b07b-4199c9d55e23" d="m164.857,94.177c.6.3,1.2.72,1.74,1.2"/>
    <path class="uuid-c3bf41b4-420e-4a9c-b07b-4199c9d55e23" d="m151.717,103.597c-.12-.42-.24-.84-.3-1.26"/>
    <path class="uuid-c3bf41b4-420e-4a9c-b07b-4199c9d55e23" d="m250.357,233.617c-.66-4.5,2.76-8.58,7.68-9.24,1.98-.24,4.02.12,5.76,1.08,1.8-3.18,6.12-4.38,9.54-2.7.66.3,1.2.66,1.68,1.14,1.44-2.64,4.92-3.72,7.8-2.4.78.36,1.44.9,1.98,1.5,2.34-2.46,6.42-2.76,9.12-.66,1.14.9,1.92,2.1,2.16,3.42,3.78.96,6,4.5,4.98,7.98-.06.3-.18.6-.3.84,3,3.6,2.28,8.76-1.68,11.52-1.2.84-2.64,1.44-4.2,1.62,0,3.84-3.48,6.96-7.74,6.96-1.44,0-2.82-.36-4.02-1.08-1.44,4.32-6.42,6.78-11.16,5.46-2.04-.54-3.72-1.68-4.92-3.24-4.8,2.64-11.16,1.2-14.04-3.24-.06-.06-.06-.12-.12-.18-3.18.36-6.06-1.74-6.42-4.62-.24-1.56.36-3.06,1.5-4.2-2.76-1.5-3.66-4.74-2.04-7.26.9-1.44,2.52-2.4,4.38-2.58l.06-.12Z"/>
    <path class="uuid-c3bf41b4-420e-4a9c-b07b-4199c9d55e23" d="m262.957,264.097c0,.6-.48,1.08-1.02,1.08-.6,0-1.08-.48-1.08-1.08s.48-1.08,1.08-1.08c.54,0,1.02.48,1.02,1.08Z"/>
    <path class="uuid-c3bf41b4-420e-4a9c-b07b-4199c9d55e23" d="m264.697,262.837c0,1.14-.96,2.1-2.16,2.1-1.14,0-2.1-.96-2.1-2.1,0-1.2.96-2.16,2.1-2.16,1.2,0,2.16.96,2.16,2.16Z"/>
    <path class="uuid-c3bf41b4-420e-4a9c-b07b-4199c9d55e23" d="m267.337,259.597c0,1.8-1.44,3.18-3.18,3.18-1.8,0-3.24-1.38-3.24-3.18,0-1.74,1.44-3.18,3.24-3.18,1.74,0,3.18,1.44,3.18,3.18Z"/>
    <path class="uuid-c3bf41b4-420e-4a9c-b07b-4199c9d55e23" d="m251.377,244.117c-1.14.12-2.34-.12-3.36-.72"/>
    <path class="uuid-c3bf41b4-420e-4a9c-b07b-4199c9d55e23" d="m254.377,251.917c-.48.18-.96.24-1.5.3"/>
    <path class="uuid-c3bf41b4-420e-4a9c-b07b-4199c9d55e23" d="m267.037,255.637c-.3-.48-.6-1.02-.84-1.56"/>
    <path class="uuid-c3bf41b4-420e-4a9c-b07b-4199c9d55e23" d="m283.477,251.797c-.06.54-.18,1.14-.36,1.68"/>
    <path class="uuid-c3bf41b4-420e-4a9c-b07b-4199c9d55e23" d="m290.557,241.237c2.64,1.2,4.32,3.66,4.32,6.36"/>
    <path class="uuid-c3bf41b4-420e-4a9c-b07b-4199c9d55e23" d="m300.697,234.517c-.42.9-1.08,1.68-1.92,2.34"/>
    <path class="uuid-c3bf41b4-420e-4a9c-b07b-4199c9d55e23" d="m296.077,225.637c.12.36.12.78.12,1.14"/>
    <path class="uuid-c3bf41b4-420e-4a9c-b07b-4199c9d55e23" d="m283.837,224.317c.24-.48.54-.96.96-1.44"/>
    <path class="uuid-c3bf41b4-420e-4a9c-b07b-4199c9d55e23" d="m274.597,225.037c.12-.42.24-.84.48-1.26"/>
    <path class="uuid-c3bf41b4-420e-4a9c-b07b-4199c9d55e23" d="m263.797,225.457c.6.3,1.2.72,1.68,1.2"/>
    <path class="uuid-c3bf41b4-420e-4a9c-b07b-4199c9d55e23" d="m250.657,234.877c-.12-.42-.24-.84-.3-1.26"/>
    <g>
      <path class="uuid-8f8eb42e-73dd-4864-82ee-8941cdad59d1" d="m175.301,150.288c0,.467-.078.897-.233,1.292-.155.396-.386.737-.692,1.025s-.688.512-1.145.672c-.457.16-.987.24-1.591.24h-.857v2.879h-1.7v-8.96h2.626c.58,0,1.093.062,1.539.188.445.126.82.31,1.124.552.304.242.535.541.692.895.158.354.237.76.237,1.217Zm-1.769.117c0-.238-.038-.454-.113-.648-.076-.194-.19-.359-.343-.497-.153-.137-.346-.242-.58-.315-.233-.073-.509-.109-.83-.109h-.884v3.284h.939c.292,0,.551-.04.774-.12.224-.08.413-.195.566-.347.153-.15.27-.331.35-.541.08-.211.12-.446.12-.706Z"/>
      <path class="uuid-8f8eb42e-73dd-4864-82ee-8941cdad59d1" d="m183.248,152.379c0,.114-.003.263-.01.446-.007.183-.017.354-.031.514h-4.58c0,.307.047.576.141.809.094.233.226.429.397.587.171.157.377.277.617.359.24.082.506.124.798.124.338,0,.701-.026,1.087-.079s.787-.139,1.203-.257v1.329c-.178.051-.373.097-.583.138-.21.041-.425.077-.644.109-.22.032-.441.056-.665.072-.224.016-.441.023-.651.023-.53,0-1.005-.075-1.426-.226-.421-.151-.777-.374-1.07-.669s-.516-.659-.672-1.093c-.155-.435-.233-.938-.233-1.509,0-.566.078-1.082.233-1.546.156-.464.375-.861.658-1.192.284-.331.627-.588,1.032-.768.405-.181.856-.271,1.354-.271.494,0,.93.077,1.31.229.379.153.697.367.953.642s.45.601.583.98c.132.379.199.795.199,1.247Zm-1.7-.239c.004-.274-.03-.514-.103-.717-.073-.203-.172-.371-.298-.504-.126-.133-.272-.23-.439-.295-.167-.063-.346-.096-.538-.096-.42,0-.766.141-1.035.422-.27.28-.43.677-.48,1.189h2.893Z"/>
      <path class="uuid-8f8eb42e-73dd-4864-82ee-8941cdad59d1" d="m189.734,152.14c.009-.261-.003-.482-.038-.665-.034-.183-.089-.334-.164-.453-.075-.118-.168-.205-.277-.26-.11-.056-.235-.083-.377-.083-.247,0-.502.103-.765.306s-.552.538-.867,1.004v4.408h-1.714v-6.965h1.515l.062,1.015c.114-.179.244-.339.388-.48s.304-.264.479-.366c.177-.104.372-.182.587-.237.215-.055.45-.082.706-.082.352,0,.663.061.936.182.271.121.5.301.686.538.186.238.322.536.411.895.089.359.127.774.113,1.245h-1.68Z"/>
      <path class="uuid-8f8eb42e-73dd-4864-82ee-8941cdad59d1" d="m199.066,154.347c0,.397-.088.737-.264,1.018-.177.281-.409.51-.7.686-.29.177-.619.305-.986.385-.368.079-.744.119-1.128.119-.512,0-.974-.023-1.385-.071s-.8-.118-1.166-.209v-1.509c.43.179.858.308,1.286.388.427.08.83.12,1.21.12.438,0,.767-.07.983-.209.217-.14.325-.321.325-.545,0-.105-.022-.201-.068-.288s-.131-.171-.257-.251c-.126-.079-.303-.162-.531-.246-.229-.085-.528-.18-.898-.285-.343-.096-.643-.204-.901-.325-.258-.121-.472-.264-.641-.429-.169-.164-.296-.355-.381-.572-.084-.217-.127-.472-.127-.765,0-.283.064-.551.192-.802s.318-.472.572-.661c.254-.19.57-.34.949-.449.38-.11.823-.165,1.33-.165.439,0,.827.023,1.166.068.338.046.638.097.897.151v1.364c-.397-.128-.771-.219-1.121-.271-.35-.053-.695-.079-1.038-.079s-.618.062-.826.185c-.208.124-.312.295-.312.515,0,.105.021.198.062.281.041.082.122.162.243.239.121.078.29.159.508.244.217.084.503.177.86.277.401.114.74.236,1.014.366.274.131.495.278.662.442.167.165.287.353.359.562.073.21.11.45.11.72Z"/>
      <path class="uuid-8f8eb42e-73dd-4864-82ee-8941cdad59d1" d="m207.665,152.86c0,.548-.078,1.05-.234,1.505-.154.454-.379.844-.672,1.168-.291.325-.65.576-1.076.755-.424.178-.908.267-1.453.267-.516,0-.977-.075-1.385-.226-.406-.151-.752-.376-1.035-.676-.283-.299-.5-.674-.65-1.124-.151-.45-.227-.975-.227-1.573,0-.553.078-1.056.236-1.508.158-.453.385-.839.68-1.159.293-.319.654-.567,1.078-.743.426-.177.906-.265,1.439-.265.521,0,.986.077,1.393.229.406.153.752.381,1.035.683s.5.675.648,1.121c.148.445.223.961.223,1.546Zm-1.742.041c0-.723-.135-1.265-.408-1.628-.271-.364-.672-.546-1.203-.546-.291,0-.541.058-.746.172s-.375.271-.508.47c-.133.198-.23.431-.291.695-.062.266-.092.549-.092.851,0,.727.145,1.273.438,1.642s.693.552,1.199.552c.279,0,.521-.056.727-.168.207-.111.373-.268.502-.466.127-.199.223-.433.287-.703.064-.27.096-.56.096-.87Z"/>
      <path class="uuid-8f8eb42e-73dd-4864-82ee-8941cdad59d1" d="m213.616,156.397v-4.538c0-.764-.283-1.146-.851-1.146-.283,0-.554.114-.812.343-.259.229-.531.54-.819.933v4.408h-1.673v-6.965h1.446l.041,1.028c.142-.179.289-.341.442-.487.153-.146.318-.271.497-.373.178-.104.37-.182.576-.237.205-.055.436-.082.692-.082.356,0,.667.059.932.175.266.117.487.281.665.494.179.212.312.468.401.768s.134.634.134,1.004v4.676h-1.673Z"/>
    </g>
    <g>
      <path class="uuid-8f8eb42e-73dd-4864-82ee-8941cdad59d1" d="m268.119,277.609c0,.466-.078.896-.233,1.292s-.386.737-.692,1.025c-.306.288-.688.512-1.145.672s-.987.239-1.591.239h-.856v2.88h-1.7v-8.96h2.625c.581,0,1.094.062,1.539.188.446.125.82.31,1.125.552.304.242.534.54.692.895.157.354.236.76.236,1.217Zm-1.769.116c0-.237-.038-.453-.113-.647s-.189-.36-.343-.497-.347-.242-.579-.315c-.233-.073-.51-.109-.83-.109h-.884v3.283h.938c.293,0,.551-.04.775-.12.224-.079.412-.195.565-.346.153-.151.27-.331.35-.542.08-.21.12-.445.12-.706Z"/>
      <path class="uuid-8f8eb42e-73dd-4864-82ee-8941cdad59d1" d="m276.065,279.7c0,.114-.003.263-.01.445-.007.184-.018.354-.031.515h-4.579c0,.306.047.576.141.809.094.233.227.429.397.586.172.158.377.278.617.36s.506.123.799.123c.338,0,.7-.026,1.086-.078.387-.053.787-.139,1.203-.258v1.33c-.178.051-.372.096-.582.138-.211.041-.426.077-.645.109-.22.032-.441.056-.665.072-.224.016-.441.023-.651.023-.53,0-1.006-.075-1.426-.226-.421-.151-.777-.374-1.069-.669-.293-.295-.517-.659-.672-1.094-.155-.434-.233-.937-.233-1.508,0-.566.078-1.082.233-1.546s.374-.861.658-1.192c.283-.332.627-.588,1.031-.769s.855-.271,1.354-.271c.493,0,.93.076,1.309.229.38.153.697.367.953.642.256.273.45.601.583.979.133.38.198.796.198,1.248Zm-1.699-.24c.004-.273-.03-.513-.104-.716s-.172-.371-.298-.504-.272-.23-.438-.295c-.167-.064-.347-.096-.539-.096-.42,0-.765.141-1.035.421-.27.281-.429.678-.479,1.189h2.894Z"/>
      <path class="uuid-8f8eb42e-73dd-4864-82ee-8941cdad59d1" d="m282.553,279.46c.009-.26-.004-.481-.038-.665-.034-.183-.089-.333-.164-.452s-.168-.206-.278-.261c-.109-.055-.235-.082-.377-.082-.246,0-.501.102-.764.305-.264.204-.552.539-.867,1.005v4.408h-1.714v-6.966h1.515l.062,1.015c.114-.178.243-.338.388-.479.144-.142.304-.264.479-.367.176-.103.371-.182.586-.236s.45-.082.707-.082c.352,0,.663.061.936.182.271.121.5.301.686.538.185.237.322.536.411.895.089.359.127.773.113,1.244h-1.68Z"/>
      <path class="uuid-8f8eb42e-73dd-4864-82ee-8941cdad59d1" d="m291.885,281.668c0,.397-.089.736-.265,1.018s-.409.51-.699.686-.619.305-.987.384c-.367.08-.743.12-1.127.12-.513,0-.974-.023-1.385-.071-.412-.049-.801-.118-1.166-.21v-1.508c.43.179.858.308,1.285.388.428.08.831.119,1.21.119.439,0,.767-.069.984-.209.217-.139.325-.32.325-.545,0-.104-.022-.201-.068-.288-.046-.086-.132-.17-.257-.25-.126-.08-.303-.162-.531-.247-.229-.084-.528-.179-.898-.284-.343-.096-.644-.204-.901-.325s-.472-.265-.641-.429c-.17-.165-.296-.355-.381-.572s-.127-.472-.127-.765c0-.283.064-.551.192-.802.128-.252.318-.472.572-.662.254-.189.57-.339.949-.449.38-.109.823-.164,1.33-.164.438,0,.827.022,1.165.068.339.046.638.096.898.151v1.364c-.397-.128-.771-.219-1.121-.271-.35-.052-.695-.078-1.038-.078s-.618.062-.826.185-.312.295-.312.515c0,.104.021.198.062.28.041.083.122.163.243.24.121.078.29.159.507.243.217.085.504.178.86.278.402.114.74.236,1.015.366.274.131.495.278.662.442.166.165.286.352.359.562.073.21.11.45.11.72Z"/>
      <path class="uuid-8f8eb42e-73dd-4864-82ee-8941cdad59d1" d="m300.482,280.18c0,.549-.078,1.051-.233,1.505-.155.455-.379.845-.672,1.169-.292.325-.65.576-1.076.754-.425.179-.909.268-1.453.268-.517,0-.978-.075-1.385-.226-.407-.151-.752-.376-1.035-.676-.283-.299-.5-.674-.651-1.124-.15-.45-.227-.975-.227-1.573,0-.553.079-1.056.237-1.509.157-.452.384-.838.679-1.158.294-.32.654-.568,1.079-.744.426-.176.905-.264,1.439-.264.521,0,.985.076,1.393.229.406.153.751.381,1.035.683.283.302.499.675.647,1.12.148.446.223.961.223,1.546Zm-1.741.042c0-.723-.136-1.266-.408-1.629-.271-.363-.673-.545-1.203-.545-.292,0-.541.058-.747.172-.205.114-.375.271-.507.47-.133.198-.23.431-.292.695-.062.266-.092.549-.092.851,0,.727.146,1.273.438,1.642.292.368.692.552,1.199.552.279,0,.521-.056.727-.168.206-.112.373-.268.501-.466.128-.199.224-.434.288-.703.063-.27.096-.56.096-.87Z"/>
      <path class="uuid-8f8eb42e-73dd-4864-82ee-8941cdad59d1" d="m306.435,283.718v-4.538c0-.764-.283-1.146-.851-1.146-.283,0-.554.114-.812.343-.259.229-.531.539-.819.933v4.408h-1.673v-6.966h1.446l.041,1.028c.142-.178.289-.34.442-.486s.318-.271.497-.374c.178-.103.37-.182.576-.236.205-.055.436-.082.692-.082.356,0,.667.059.932.175.266.116.487.281.665.493.179.213.312.469.401.769.089.299.134.634.134,1.004v4.676h-1.673Z"/>
    </g>
    <g>
      <path class="uuid-8dcc829e-6278-46e1-a802-9f45cebfb2e6" d="m151.521,85.056v-8.96h2.893c1.019,0,1.784.178,2.293.534.51.356.765.896.765,1.618,0,.224-.026.442-.079.655-.052.212-.133.407-.243.586-.11.178-.247.336-.411.473-.165.138-.359.245-.583.322.224.037.438.108.641.216.203.107.381.247.535.418.153.172.274.374.363.607.089.232.134.493.134.781,0,.914-.306,1.601-.918,2.06-.613.46-1.497.689-2.653.689h-2.735Zm4.196-6.513c0-.169-.028-.322-.083-.459-.055-.138-.143-.254-.264-.35-.121-.097-.277-.171-.466-.224-.19-.052-.419-.078-.689-.078h-1.021v2.372h1.021c.274,0,.506-.033.696-.1.189-.066.345-.158.466-.274s.208-.25.26-.401c.053-.15.079-.312.079-.486Zm-1.344,5.135c.27,0,.506-.034.709-.103.203-.069.374-.164.511-.285s.241-.264.312-.428c.071-.165.106-.341.106-.528,0-.389-.145-.692-.435-.912-.291-.219-.735-.329-1.333-.329h-1.049v2.585h1.179Z"/>
      <path class="uuid-8dcc829e-6278-46e1-a802-9f45cebfb2e6" d="m165.727,81.039c0,.114-.003.263-.01.446-.007.183-.017.354-.031.514h-4.58c0,.307.047.576.141.809.094.233.226.429.397.587.171.157.377.277.617.359.24.082.506.124.798.124.338,0,.701-.026,1.087-.079s.787-.139,1.203-.257v1.329c-.178.051-.373.097-.583.138-.21.041-.425.077-.644.109-.22.032-.441.056-.665.072-.224.016-.441.023-.651.023-.53,0-1.005-.075-1.426-.226-.421-.151-.777-.374-1.07-.669s-.516-.659-.672-1.093c-.155-.435-.233-.938-.233-1.509,0-.566.078-1.082.233-1.546.156-.464.375-.861.658-1.192.284-.331.627-.588,1.032-.768.405-.181.856-.271,1.354-.271.494,0,.93.077,1.31.229.379.153.697.367.953.642s.45.601.583.98c.132.379.199.795.199,1.247Zm-1.7-.239c.004-.274-.03-.514-.103-.717-.073-.203-.172-.371-.298-.504-.126-.133-.272-.23-.439-.295-.167-.063-.346-.096-.538-.096-.42,0-.766.141-1.035.422-.27.28-.43.677-.48,1.189h2.893Z"/>
      <path class="uuid-8dcc829e-6278-46e1-a802-9f45cebfb2e6" d="m171.884,85.056v-4.538c0-.764-.284-1.146-.85-1.146-.284,0-.554.114-.812.343s-.531.54-.819.933v4.408h-1.672v-9.687h1.672v2.386l-.082,1.261c.142-.169.286-.32.432-.455.146-.135.304-.248.473-.34s.352-.161.548-.209c.197-.048.414-.072.651-.072.356,0,.667.059.933.175.265.117.486.281.665.494.178.212.312.468.401.768.089.3.134.634.134,1.004v4.676h-1.673Z"/>
      <path class="uuid-8dcc829e-6278-46e1-a802-9f45cebfb2e6" d="m180.167,85.056l-.041-.912c-.146.155-.299.299-.459.429s-.336.243-.528.34c-.192.096-.401.17-.627.223-.226.052-.474.078-.744.078-.356,0-.669-.052-.939-.157-.27-.105-.496-.251-.679-.438-.183-.188-.321-.414-.415-.679-.094-.266-.141-.558-.141-.878,0-.329.07-.633.209-.911.139-.279.352-.52.637-.721.286-.2.642-.358,1.07-.473.427-.114.929-.171,1.504-.171h.912v-.419c0-.178-.025-.339-.076-.483-.05-.144-.131-.266-.243-.366-.112-.101-.257-.179-.436-.233s-.397-.082-.658-.082c-.411,0-.817.047-1.217.141s-.787.225-1.162.394v-1.336c.333-.133.718-.242,1.155-.329s.89-.131,1.361-.131c.517,0,.96.05,1.33.147.37.099.675.246.915.442.24.196.417.442.531.737.114.294.171.639.171,1.031v4.758h-1.433Zm-.24-3.078h-1.021c-.284,0-.523.027-.72.082-.196.055-.356.131-.479.227-.124.096-.214.207-.271.332-.057.126-.085.26-.085.401,0,.283.091.499.274.647.183.149.432.224.748.224.233,0,.475-.085.727-.254.251-.169.528-.411.83-.727v-.933Z"/>
      <path class="uuid-8dcc829e-6278-46e1-a802-9f45cebfb2e6" d="m187.765,85.056h-1.927l-2.763-6.965h1.865l1.446,3.948.432,1.275.425-1.221,1.461-4.003h1.796l-2.735,6.965Z"/>
      <path class="uuid-8dcc829e-6278-46e1-a802-9f45cebfb2e6" d="m194.189,79.393h-1.968v-1.302h3.682v5.662h2.008v1.303h-5.93v-1.303h2.208v-4.36Zm1.851-3.208c0,.151-.027.293-.082.425-.055.133-.132.248-.229.347-.099.099-.214.176-.347.233-.133.057-.276.085-.432.085s-.301-.028-.436-.085c-.135-.058-.251-.135-.35-.233s-.175-.214-.229-.347c-.055-.132-.082-.273-.082-.425,0-.15.027-.292.082-.425s.131-.249.229-.35.215-.18.35-.236c.135-.058.28-.086.436-.086s.299.028.432.086c.133.057.248.136.347.236.098.101.175.217.229.35s.082.274.082.425Z"/>
      <path class="uuid-8dcc829e-6278-46e1-a802-9f45cebfb2e6" d="m206.283,81.519c0,.548-.077,1.05-.232,1.505-.156.454-.38.844-.672,1.168-.293.325-.651.576-1.076.755-.426.178-.91.267-1.454.267-.517,0-.978-.075-1.385-.226-.406-.151-.752-.376-1.035-.676-.283-.299-.5-.674-.651-1.124-.15-.45-.226-.975-.226-1.573,0-.553.078-1.056.236-1.508.157-.453.384-.839.679-1.159.295-.319.654-.567,1.08-.743.425-.177.904-.265,1.439-.265.521,0,.984.077,1.392.229.406.153.752.381,1.035.683s.499.675.647,1.121c.148.445.223.961.223,1.546Zm-1.741.041c0-.723-.136-1.265-.407-1.628-.272-.364-.674-.546-1.203-.546-.293,0-.542.058-.748.172-.205.114-.374.271-.507.47-.133.198-.229.431-.291.695-.062.266-.093.549-.093.851,0,.727.146,1.273.438,1.642.292.368.692.552,1.2.552.278,0,.521-.056.727-.168.205-.111.372-.268.5-.466.128-.199.224-.433.288-.703.063-.27.096-.56.096-.87Z"/>
      <path class="uuid-8dcc829e-6278-46e1-a802-9f45cebfb2e6" d="m212.564,80.8c.009-.261-.003-.482-.038-.665-.034-.183-.089-.334-.164-.453-.075-.118-.168-.205-.277-.26-.11-.056-.235-.083-.377-.083-.247,0-.502.103-.765.306s-.552.538-.867,1.004v4.408h-1.714v-6.965h1.515l.062,1.015c.114-.179.244-.339.388-.48s.304-.264.479-.366c.177-.104.372-.182.587-.237.215-.055.45-.082.706-.082.352,0,.663.061.936.182.271.121.5.301.686.538.186.238.322.536.411.895.089.359.127.774.113,1.245h-1.68Z"/>
    </g>
    <g>
      <path class="uuid-8dcc829e-6278-46e1-a802-9f45cebfb2e6" d="m252.142,214.117v-8.96h2.893c1.02,0,1.783.178,2.293.534s.765.896.765,1.618c0,.224-.026.442-.079.654-.053.213-.134.408-.243.587-.109.178-.247.335-.411.473-.165.137-.359.244-.583.322.224.036.438.108.641.216.204.107.382.247.535.418.153.172.274.374.363.606.089.233.134.494.134.782,0,.914-.307,1.601-.919,2.06-.612.46-1.496.689-2.652.689h-2.735Zm4.195-6.513c0-.169-.027-.322-.082-.46-.056-.137-.144-.253-.265-.35-.121-.096-.276-.17-.466-.223s-.419-.078-.689-.078h-1.021v2.371h1.021c.274,0,.507-.032.696-.099s.345-.158.466-.274.208-.25.261-.401c.053-.15.079-.312.079-.486Zm-1.344,5.135c.27,0,.506-.034.709-.104.204-.068.374-.163.511-.284.138-.121.241-.264.312-.429.07-.164.106-.34.106-.527,0-.389-.146-.692-.436-.912-.29-.219-.734-.329-1.333-.329h-1.05v2.585h1.18Z"/>
      <path class="uuid-8dcc829e-6278-46e1-a802-9f45cebfb2e6" d="m266.347,210.099c0,.114-.003.263-.01.445-.007.184-.018.354-.031.515h-4.579c0,.306.047.576.141.809.094.233.227.429.397.586.172.158.377.278.617.36s.506.123.799.123c.338,0,.7-.026,1.086-.078.387-.053.787-.139,1.203-.258v1.33c-.178.051-.372.096-.582.138-.211.041-.426.077-.645.109-.22.032-.441.056-.665.072-.224.016-.441.023-.651.023-.53,0-1.006-.075-1.426-.226-.421-.151-.777-.374-1.069-.669-.293-.295-.517-.659-.672-1.094-.155-.434-.233-.937-.233-1.508,0-.566.078-1.082.233-1.546s.374-.861.658-1.192c.283-.332.627-.588,1.031-.769s.855-.271,1.354-.271c.493,0,.93.076,1.309.229.38.153.697.367.953.642.256.273.45.601.583.979.133.38.198.796.198,1.248Zm-1.699-.24c.004-.273-.03-.513-.104-.716s-.172-.371-.298-.504-.272-.23-.438-.295c-.167-.064-.347-.096-.539-.096-.42,0-.765.141-1.035.421-.27.281-.429.678-.479,1.189h2.894Z"/>
      <path class="uuid-8dcc829e-6278-46e1-a802-9f45cebfb2e6" d="m272.505,214.117v-4.538c0-.764-.283-1.146-.851-1.146-.283,0-.554.114-.812.343-.259.229-.531.539-.819.933v4.408h-1.673v-9.688h1.673v2.386l-.083,1.262c.142-.169.286-.321.433-.456.146-.135.304-.248.473-.339.169-.092.352-.161.549-.209.196-.048.413-.072.651-.072.356,0,.667.059.932.175.266.116.487.281.665.493.179.213.312.469.401.769.089.299.134.634.134,1.004v4.676h-1.673Z"/>
      <path class="uuid-8dcc829e-6278-46e1-a802-9f45cebfb2e6" d="m280.788,214.117l-.042-.912c-.146.155-.299.298-.459.429-.16.13-.336.243-.527.339-.192.097-.401.171-.628.223-.226.053-.474.079-.743.079-.357,0-.67-.053-.939-.157-.27-.105-.496-.252-.679-.439-.183-.187-.321-.413-.415-.679-.094-.265-.141-.557-.141-.877,0-.329.069-.633.209-.912.14-.278.353-.519.638-.72.286-.201.643-.358,1.069-.473.428-.114.929-.172,1.505-.172h.912v-.418c0-.178-.025-.339-.075-.483-.051-.144-.132-.266-.244-.366-.111-.101-.257-.179-.435-.233-.179-.055-.398-.082-.658-.082-.412,0-.817.047-1.217.141-.4.094-.788.225-1.162.394v-1.337c.333-.132.719-.242,1.155-.329.436-.086.89-.13,1.36-.13.517,0,.96.049,1.33.147s.675.246.915.442.417.442.531.736c.114.295.172.639.172,1.032v4.758h-1.433Zm-.24-3.078h-1.021c-.283,0-.523.027-.72.082-.197.055-.356.13-.48.227-.123.096-.213.206-.271.332s-.086.26-.086.401c0,.283.092.499.274.647s.432.223.747.223c.233,0,.476-.084.727-.253.252-.169.528-.412.83-.728v-.932Z"/>
      <path class="uuid-8dcc829e-6278-46e1-a802-9f45cebfb2e6" d="m288.385,214.117h-1.926l-2.764-6.966h1.865l1.446,3.949.432,1.275.426-1.221,1.46-4.004h1.796l-2.735,6.966Z"/>
      <path class="uuid-8dcc829e-6278-46e1-a802-9f45cebfb2e6" d="m294.81,208.454h-1.967v-1.303h3.681v5.663h2.009v1.303h-5.93v-1.303h2.207v-4.36Zm1.852-3.208c0,.15-.027.292-.082.425-.056.133-.132.248-.23.347-.098.098-.213.176-.346.232-.133.058-.276.086-.432.086-.156,0-.301-.028-.436-.086-.135-.057-.252-.135-.35-.232-.099-.099-.175-.214-.229-.347-.056-.133-.083-.274-.083-.425,0-.151.027-.293.083-.425.055-.133.131-.249.229-.35.098-.101.215-.18.35-.237.135-.057.279-.085.436-.085.155,0,.299.028.432.085.133.058.248.137.346.237.099.101.175.217.23.35.055.132.082.273.082.425Z"/>
      <path class="uuid-8dcc829e-6278-46e1-a802-9f45cebfb2e6" d="m306.904,210.579c0,.549-.078,1.051-.233,1.505-.155.455-.379.845-.672,1.169-.292.325-.65.576-1.076.754-.425.179-.909.268-1.453.268-.517,0-.978-.075-1.385-.226-.407-.151-.752-.376-1.035-.676-.283-.299-.5-.674-.651-1.124-.15-.45-.227-.975-.227-1.573,0-.553.079-1.056.237-1.509.157-.452.384-.838.679-1.158.294-.32.654-.568,1.079-.744.426-.176.905-.264,1.439-.264.521,0,.985.076,1.393.229.406.153.751.381,1.035.683.283.302.499.675.647,1.12.148.446.223.961.223,1.546Zm-1.741.042c0-.723-.136-1.266-.408-1.629-.271-.363-.673-.545-1.203-.545-.292,0-.541.058-.747.172-.205.114-.375.271-.507.47-.133.198-.23.431-.292.695-.062.266-.092.549-.092.851,0,.727.146,1.273.438,1.642.292.368.692.552,1.199.552.279,0,.521-.056.727-.168.206-.112.373-.268.501-.466.128-.199.224-.434.288-.703.063-.27.096-.56.096-.87Z"/>
      <path class="uuid-8dcc829e-6278-46e1-a802-9f45cebfb2e6" d="m313.186,209.859c.009-.26-.004-.481-.038-.665-.034-.183-.089-.333-.164-.452s-.168-.206-.278-.261c-.109-.055-.235-.082-.377-.082-.246,0-.501.102-.764.305-.264.204-.552.539-.867,1.005v4.408h-1.714v-6.966h1.515l.062,1.015c.114-.178.243-.338.388-.479.144-.142.304-.264.479-.367.176-.103.371-.182.586-.236s.45-.082.707-.082c.352,0,.663.061.936.182.271.121.5.301.686.538.185.237.322.536.411.895.089.359.127.773.113,1.244h-1.68Z"/>
    </g>
    <polygon class="uuid-c924fc5b-7227-4749-b7f3-c3c1949c780a" points="46.116 253.117 69.876 253.117 77.256 229.357 84.576 253.117 108.336 253.117 89.136 267.817 96.456 291.577 77.256 276.877 57.996 291.577 65.376 267.817 46.116 253.117"/>
    <g>
      <path class="uuid-ff3e5659-5553-4ec3-915f-54d334a19ed1" d="m58.118,304.958v-8.96h5.395v1.426h-3.681v2.229h3.51v1.392h-3.51v2.488h3.681v1.426h-5.395Z"/>
      <path class="uuid-ff3e5659-5553-4ec3-915f-54d334a19ed1" d="m69.787,304.958h-1.926l-2.764-6.965h1.865l1.446,3.948.432,1.275.426-1.221,1.46-4.003h1.796l-2.735,6.965Z"/>
      <path class="uuid-ff3e5659-5553-4ec3-915f-54d334a19ed1" d="m80.044,300.94c0,.114-.003.263-.01.446-.007.183-.018.354-.031.514h-4.579c0,.307.047.576.141.809.094.233.227.429.397.587.172.157.377.277.617.359s.506.124.799.124c.338,0,.7-.026,1.086-.079.387-.053.787-.139,1.203-.257v1.329c-.178.051-.372.097-.582.138-.211.041-.426.077-.645.109-.22.032-.441.056-.665.072-.224.016-.441.023-.651.023-.53,0-1.006-.075-1.426-.226-.421-.151-.777-.374-1.069-.669-.293-.295-.517-.659-.672-1.093-.155-.435-.233-.938-.233-1.509,0-.566.078-1.082.233-1.546s.374-.861.658-1.192c.283-.331.627-.588,1.031-.768.404-.181.855-.271,1.354-.271.493,0,.93.077,1.309.229.38.153.697.367.953.642s.45.601.583.98c.133.379.198.795.198,1.247Zm-1.699-.239c.004-.274-.03-.514-.104-.717s-.172-.371-.298-.504-.272-.23-.438-.295c-.167-.063-.347-.096-.539-.096-.42,0-.765.141-1.035.422-.27.28-.429.677-.479,1.189h2.894Z"/>
      <path class="uuid-ff3e5659-5553-4ec3-915f-54d334a19ed1" d="m86.216,304.958v-4.538c0-.764-.283-1.146-.851-1.146-.283,0-.554.114-.812.343-.259.229-.531.54-.819.933v4.408h-1.673v-6.965h1.446l.041,1.028c.142-.179.289-.341.442-.487.153-.146.318-.271.497-.373.178-.104.37-.182.576-.237.205-.055.436-.082.692-.082.356,0,.667.059.932.175.266.117.487.281.665.494.179.212.312.468.401.768s.134.634.134,1.004v4.676h-1.673Z"/>
      <path class="uuid-ff3e5659-5553-4ec3-915f-54d334a19ed1" d="m95.891,304.89c-.302.068-.606.123-.912.164-.307.041-.597.062-.871.062-.457,0-.851-.048-1.183-.144-.331-.096-.605-.242-.822-.438s-.377-.447-.479-.751c-.104-.304-.154-.666-.154-1.087v-3.4h-1.872v-1.302h1.872v-1.783l1.714-.445v2.229h2.708v1.302h-2.708v3.277c0,.397.091.698.273.901.184.203.489.306.919.306.274,0,.542-.023.802-.069.261-.045.499-.098.714-.157v1.337Z"/>
    </g>
    <g>
      <path class="uuid-9e88481a-2290-4ca3-9277-37674b5f0337" d="m181.962,340.117l-.493-1.769h-3.127l-.507,1.769h-1.673l2.653-8.96h2.358l2.652,8.96h-1.864Zm-2.036-7.314l-1.179,4.168h2.344l-1.165-4.168Z"/>
      <path class="uuid-9e88481a-2290-4ca3-9277-37674b5f0337" d="m185.119,340.117v-8.96h2.893c1.02,0,1.783.178,2.293.534s.765.896.765,1.618c0,.224-.026.442-.079.655-.053.212-.134.407-.243.586-.109.178-.247.336-.411.473-.165.138-.359.245-.583.322.224.037.438.108.641.216.204.107.382.247.535.418.153.172.274.374.363.607.089.232.134.493.134.781,0,.914-.307,1.601-.919,2.06-.612.46-1.496.689-2.652.689h-2.735Zm4.195-6.513c0-.169-.027-.322-.082-.459-.056-.138-.144-.254-.265-.35-.121-.097-.276-.171-.466-.224-.189-.052-.419-.078-.689-.078h-1.021v2.372h1.021c.274,0,.507-.033.696-.1s.345-.158.466-.274.208-.25.261-.401c.053-.15.079-.312.079-.486Zm-1.344,5.135c.27,0,.506-.034.709-.103.204-.069.374-.164.511-.285.138-.121.241-.264.312-.428.07-.165.106-.341.106-.528,0-.389-.146-.692-.436-.912-.29-.219-.734-.329-1.333-.329h-1.05v2.585h1.18Z"/>
      <path class="uuid-9e88481a-2290-4ca3-9277-37674b5f0337" d="m198.255,340.117l-.164-5.066-.062-2.022-.433,1.371-.994,3.051h-1.056l-.897-3.051-.377-1.371-.048,1.981-.151,5.107h-1.433l.438-8.96h1.906l.788,2.543.377,1.433.377-1.35.83-2.626h1.939l.446,8.96h-1.488Z"/>
    </g>
    <line class="uuid-5eea2e05-0009-42bc-862a-b78c7a5d3bf0" x1="158.857" y1="166.177" x2="227.137" y2="261.517"/>
    <path class="uuid-358f409c-06ca-4bd9-8d54-4b8ebd3088c3" d="m208.537,262.657l3.66-2.64c.66-.42.78-.84.48-1.32-.18-.24-.42-.42-.78-.48-.3-.06-.72-.12-1.2-.12l-3.6,2.58-.96-1.38,5.64-4.02.84,1.14-.78.66c.24,0,.42,0,.66.06.18.06.36.12.54.18.24.12.42.24.54.36.18.12.36.3.48.48.18.3.36.6.42.9.06.24.06.54-.06.84-.06.24-.18.48-.36.72-.18.3-.48.48-.78.72l-3.78,2.7m-2.58-9.66c.6-.42.96-.84,1.14-1.26.12-.42,0-.84-.3-1.26-.12-.24-.36-.42-.54-.54-.24-.12-.42-.12-.66-.12s-.54.06-.78.12c-.24.12-.48.24-.72.42-.6.42-.96.9-1.08,1.32-.12.48-.06.9.24,1.32.18.24.36.36.54.48.24.12.42.18.66.12.24,0,.48-.06.78-.18.24-.06.48-.24.72-.42Zm1.08,1.44c-.48.3-.9.54-1.38.66s-.9.18-1.32.12c-.48-.06-.84-.18-1.26-.42-.42-.24-.72-.6-1.08-1.02-.3-.42-.48-.84-.6-1.26-.12-.42-.12-.84-.06-1.26.12-.42.3-.78.54-1.2.3-.36.66-.72,1.14-1.08.48-.3.96-.54,1.38-.66.48-.12.9-.18,1.38-.12.42.06.84.18,1.2.42.42.24.72.6,1.08,1.02.3.42.48.84.6,1.26.12.42.12.84.06,1.26-.12.42-.3.78-.54,1.2-.3.36-.66.72-1.14,1.08Zm-5.28-11.16l-1.14-1.56,1.02-.78,2.16,3-4.62,3.3,1.14,1.62-1.02.78-3.48-4.86,1.08-.78,1.26,1.8,3.6-2.52Zm3.66-.3c-.12.06-.24.12-.36.18h-.42c-.18-.06-.3-.06-.42-.18-.12-.06-.24-.18-.3-.3-.12-.12-.18-.24-.18-.36-.06-.18-.06-.3,0-.42,0-.18.06-.3.12-.42s.18-.24.3-.3c.12-.12.24-.18.42-.18.12-.06.24-.06.42,0,.12,0,.24.06.36.12.12.06.24.18.36.3.06.12.12.3.18.42v.42l-.18.36c-.06.12-.18.24-.3.36Zm-10.86-.12c-.24-.24-.48-.42-.66-.66-.24-.24-.42-.48-.54-.66-.3-.42-.48-.78-.6-1.08-.12-.3-.12-.66-.12-.9.06-.3.18-.6.36-.84s.42-.54.78-.78l2.76-1.98-1.08-1.5,1.08-.78,1.08,1.56,1.44-1.02,1.38,1.14-1.86,1.26,1.62,2.22-1.08.78-1.56-2.22-2.7,1.86c-.3.24-.48.48-.54.78-.06.24,0,.54.24.9.18.24.36.42.54.6.18.24.36.36.54.54l-1.08.78Zm-3.18-9.72l-.6-.78c-.18-.24-.3-.42-.48-.54-.18-.18-.3-.24-.48-.3-.12-.06-.24-.06-.42,0-.12,0-.24.06-.36.12-.24.18-.36.42-.36.6,0,.24.06.48.24.78.12.18.36.3.6.42.3.12.66.18,1.08.24l.78-.54Zm-2.4,1.98l.72-.54c-.18,0-.36-.06-.6-.12-.18-.06-.36-.12-.54-.24-.24-.12-.42-.24-.6-.36-.12-.18-.3-.36-.48-.6-.18-.3-.36-.54-.42-.84-.06-.3-.06-.54,0-.78,0-.3.12-.54.3-.78.18-.18.36-.42.6-.6.3-.18.6-.3.9-.36.3-.06.6,0,.96.12.3.12.66.3,1.02.6.3.24.66.66.96,1.14l.54.72.36-.24c.12-.12.24-.24.36-.36.06-.12.12-.24.12-.42.06-.12,0-.3-.06-.48s-.12-.36-.3-.6c-.24-.3-.48-.6-.84-.9-.3-.24-.6-.48-.96-.72l1.08-.78c.3.24.6.48.96.78.3.3.6.66.9,1.02.3.42.48.84.6,1.2.18.36.24.66.18.96,0,.36-.12.6-.3.9-.18.24-.42.48-.72.72l-3.9,2.76-.84-1.2Zm-3.72-5.7c-.3-.18-.54-.42-.84-.66-.24-.24-.48-.54-.72-.84-.3-.48-.54-.9-.66-1.38-.12-.42-.18-.84-.12-1.26.12-.42.24-.84.54-1.2.24-.42.6-.78,1.08-1.08.48-.36.9-.54,1.38-.66.48-.12.96-.18,1.38-.12.48.12.9.3,1.26.54.42.24.78.6,1.08,1.08.3.36.48.72.6.96.18.3.3.54.36.78l-1.32.96c-.06-.3-.12-.66-.3-.96-.12-.3-.24-.6-.42-.84-.18-.24-.36-.42-.6-.6-.24-.12-.48-.18-.72-.24-.24,0-.54,0-.78.12-.3.06-.54.18-.78.36-.3.18-.54.42-.66.66-.18.24-.3.48-.36.72,0,.24,0,.48.06.78.06.24.18.48.36.72.06.12.18.24.3.36.06.12.18.24.3.36.18.12.3.24.42.3.12.12.24.18.36.3l-1.2.84Zm-2.22-12.42l-1.14-1.62,1.08-.78,2.16,3-4.62,3.3,1.14,1.62-1.08.78-3.42-4.86,1.08-.72,1.26,1.8,3.54-2.52Zm3.72-.36c-.12.06-.24.12-.42.18h-.42c-.12,0-.24-.06-.36-.12-.12-.12-.24-.18-.36-.36l-.18-.36v-.42c.06-.18.06-.3.18-.42.06-.12.18-.18.3-.3.12-.06.24-.12.36-.18.18,0,.3-.06.42,0,.18,0,.3.06.42.12.12.12.24.18.3.3.12.18.18.3.18.42.06.12.06.3,0,.42,0,.12-.06.3-.12.42s-.18.18-.3.3Zm-11.88-1.44l3.66-2.64c.66-.42.78-.9.48-1.32-.18-.24-.42-.42-.78-.48-.3-.06-.72-.12-1.2-.12l-3.6,2.52-.96-1.32,5.64-4.08.84,1.2-.78.6c.18.06.42.06.66.12.18,0,.36.12.54.18s.36.18.54.36c.18.12.3.3.48.48.18.3.36.6.42.84.06.3,0,.6-.06.84-.06.3-.18.54-.36.78-.24.24-.48.48-.78.72l-3.78,2.7-.96-1.38Zm-.42-12.6l-3.72,2.58c-.3.24-.48.48-.6.72-.06.18,0,.42.18.66.12.24.36.36.72.48.36.06.78.12,1.26.12l3.6-2.58.96,1.38-5.7,4.02-.84-1.14.84-.66c-.24,0-.48-.06-.66-.06-.24-.06-.42-.12-.6-.18l-.54-.36c-.18-.12-.3-.3-.48-.48-.18-.3-.3-.6-.36-.9-.06-.3-.06-.54,0-.84.06-.24.18-.48.42-.78.18-.24.42-.42.72-.66l3.84-2.7.96,1.38Zm-8.52.06l3.9-2.76c.12-.06.24-.18.36-.24l.24-.24c.06-.06.06-.18.06-.24s0-.12-.06-.18c-.06-.12-.24-.18-.48-.18s-.6.06-1.08.18l-3.66,2.58-.84-1.14,3.9-2.76c.12-.06.24-.18.36-.24.06-.12.18-.18.24-.24,0-.06.06-.18.06-.24s0-.12-.06-.18c-.06-.12-.24-.18-.48-.18s-.6.06-1.08.18l-3.66,2.58-.84-1.14,5.64-4.02.72.96-.78.66c.24-.06.42-.06.6-.06.18-.06.3,0,.48,0l.36.18c.12.12.24.24.3.36.24.3.3.6.3.9-.06.3-.24.54-.54.78.24-.06.48-.06.66-.06s.36.06.48.06l.36.18c.12.12.24.24.3.36.3.42.42.84.24,1.2-.12.42-.48.84-1.08,1.2l-4.08,2.94-.84-1.2Zm-4.62-6.54l3.84-2.76c.18-.12.3-.18.36-.3.12-.06.18-.12.24-.24.06-.06.12-.12.12-.18s-.06-.12-.06-.24c-.12-.12-.24-.18-.48-.18s-.6.06-1.08.24l-3.72,2.58-.78-1.14,3.84-2.76c.12-.12.24-.18.36-.3.12-.06.18-.12.24-.24.06-.06.06-.12.06-.18.06-.06,0-.12-.06-.24-.06-.06-.24-.12-.48-.12s-.6,0-1.08.12l-3.66,2.64-.84-1.2,5.7-4.02.72,1.02-.84.6c.24,0,.42-.06.6-.06s.36.06.48.06c.18.06.3.12.42.18.06.12.18.18.3.36.18.3.3.6.24.9-.06.24-.18.54-.48.72h.6c.18,0,.36,0,.48.06.18.06.3.12.42.18.12.12.18.18.3.36.3.42.36.78.24,1.2-.18.42-.54.78-1.08,1.2l-4.08,2.88-.84-1.14Zm-2.1-8.94c.6-.42.96-.84,1.14-1.32.12-.42.06-.84-.3-1.26-.12-.24-.36-.42-.54-.54-.24-.06-.42-.12-.66-.12s-.48.06-.78.18c-.24.06-.48.24-.72.42-.6.42-.96.84-1.08,1.26-.12.48-.06.9.24,1.32.18.24.36.42.54.48.24.12.42.18.66.18.24-.06.48-.12.78-.18.24-.12.48-.24.72-.42Zm1.08,1.38c-.48.3-.9.54-1.38.66-.48.18-.9.18-1.32.12-.42,0-.84-.18-1.26-.42-.36-.24-.72-.6-1.08-1.02-.24-.42-.48-.84-.6-1.26-.12-.42-.12-.84-.06-1.26.12-.36.3-.78.54-1.14.3-.42.66-.78,1.2-1.14.42-.3.9-.54,1.32-.66.48-.12.96-.18,1.38-.12.42.06.84.18,1.2.48.42.24.78.54,1.08,1.02.3.42.48.84.6,1.26.12.42.12.84.06,1.2-.12.42-.3.84-.54,1.2-.3.36-.66.72-1.14,1.08Zm-7.5-5.04c-.36-.24-.66-.48-.96-.72-.3-.3-.54-.6-.78-.9-.36-.54-.6-1.02-.72-1.56-.18-.54-.18-1.02-.06-1.5.12-.54.36-1.02.72-1.44.3-.48.78-.9,1.38-1.38.66-.42,1.26-.72,1.8-.9.6-.18,1.2-.24,1.74-.18.54.06,1.02.24,1.5.54.48.24.9.66,1.26,1.2.12.18.18.3.3.48.12.12.18.3.24.48.12.12.18.3.24.48.06.18.12.36.18.54l-1.32.96c-.12-.42-.18-.78-.36-1.14-.12-.36-.3-.6-.42-.84-.24-.36-.54-.6-.84-.78-.3-.12-.6-.24-.96-.24s-.66.12-1.02.24c-.42.12-.78.36-1.14.6-.42.3-.72.6-.96.9-.3.3-.48.6-.54.9-.12.3-.12.66-.06.96.06.36.18.66.42,1.02.12.12.24.24.36.36.12.12.24.24.42.36.12.12.24.24.42.36.18.12.3.18.48.3l-1.32.9Z"/>
    <path class="uuid-5066fe04-b0a3-40ea-b56e-fd7551f84620" d="m216.577,280.177h-114.24m36.06-112.8l-49.86,78.18"/>
    <g>
      <path class="uuid-9e88481a-2290-4ca3-9277-37674b5f0337" d="m119.395,291.936l-.025-.569c-.092.098-.188.187-.287.268s-.209.152-.329.212-.25.106-.392.139c-.141.033-.296.05-.464.05-.223,0-.418-.033-.586-.099-.169-.065-.31-.157-.424-.273-.114-.117-.2-.259-.259-.424s-.088-.348-.088-.548c0-.205.044-.395.131-.568s.22-.323.397-.449c.179-.125.401-.224.668-.295s.579-.107.938-.107h.569v-.261c0-.111-.017-.212-.048-.302s-.082-.166-.151-.229c-.07-.062-.16-.111-.271-.146s-.248-.052-.411-.052c-.257,0-.51.029-.759.088-.25.059-.491.141-.726.246v-.834c.209-.083.449-.151.721-.205.272-.055.556-.081.85-.081.322,0,.599.03.83.092.23.062.421.153.57.275.15.123.261.276.332.46s.106.398.106.644v2.969h-.894Zm-.149-1.921h-.638c-.177,0-.326.018-.449.052s-.223.081-.3.141c-.076.061-.133.13-.169.208-.035.078-.053.162-.053.25,0,.177.057.312.171.404s.27.139.466.139c.146,0,.297-.053.454-.158.156-.105.329-.256.518-.453v-.582Z"/>
      <path class="uuid-9e88481a-2290-4ca3-9277-37674b5f0337" d="m125.406,291.769c-.205.083-.418.145-.637.185-.22.039-.449.06-.689.06-.345,0-.654-.047-.928-.142-.273-.094-.506-.233-.697-.419s-.337-.415-.438-.688-.151-.591-.151-.949c0-.349.055-.663.164-.945.11-.283.265-.523.464-.724.2-.199.44-.354.721-.462.281-.108.594-.162.939-.162.282,0,.52.015.712.045.192.029.366.067.52.113v1.014c-.177-.089-.368-.157-.575-.205-.207-.049-.402-.073-.588-.073-.194,0-.368.033-.521.099-.154.065-.284.157-.39.273-.105.117-.187.259-.241.426-.056.167-.084.351-.084.55,0,.208.03.395.09.561.06.165.145.306.255.421.109.115.241.204.396.266s.325.092.513.092c.092,0,.188-.007.289-.02s.202-.031.304-.056.201-.052.3-.083c.098-.031.19-.065.275-.103v.928Z"/>
      <path class="uuid-9e88481a-2290-4ca3-9277-37674b5f0337" d="m130.693,291.893c-.188.043-.378.077-.568.103-.191.026-.372.039-.544.039-.285,0-.53-.03-.737-.09-.207-.061-.378-.151-.514-.274-.135-.122-.235-.278-.299-.468-.064-.189-.097-.416-.097-.678v-2.122h-1.168v-.812h1.168v-1.112l1.069-.278v1.391h1.689v.812h-1.689v2.045c0,.248.058.436.171.562.114.127.306.19.573.19.171,0,.338-.015.501-.043.162-.028.311-.062.444-.099v.834Z"/>
      <path class="uuid-9e88481a-2290-4ca3-9277-37674b5f0337" d="m133.731,288.403h-1.228v-.812h2.297v3.533h1.254v.812h-3.7v-.812h1.377v-2.721Zm1.155-2.002c0,.095-.017.183-.051.266-.035.083-.082.154-.144.216s-.134.109-.216.146c-.083.035-.173.054-.27.054-.098,0-.188-.019-.271-.054-.085-.036-.157-.084-.219-.146s-.109-.133-.144-.216-.051-.171-.051-.266c0-.094.017-.183.051-.265.034-.083.082-.155.144-.219.062-.062.134-.111.219-.147.084-.035.174-.054.271-.054.097,0,.187.019.27.054.082.036.154.085.216.147.062.063.108.136.144.219.034.082.051.171.051.265Z"/>
      <path class="uuid-9e88481a-2290-4ca3-9277-37674b5f0337" d="m139.977,291.936h-1.202l-1.724-4.346h1.163l.902,2.464.27.795.266-.761.911-2.498h1.12l-1.706,4.346Z"/>
      <path class="uuid-9e88481a-2290-4ca3-9277-37674b5f0337" d="m145.492,291.936l-.025-.569c-.092.098-.188.187-.287.268s-.209.152-.329.212-.25.106-.392.139c-.141.033-.296.05-.464.05-.223,0-.418-.033-.586-.099-.169-.065-.31-.157-.424-.273-.114-.117-.2-.259-.259-.424s-.088-.348-.088-.548c0-.205.044-.395.131-.568s.22-.323.397-.449c.179-.125.401-.224.668-.295s.579-.107.938-.107h.569v-.261c0-.111-.017-.212-.048-.302s-.082-.166-.151-.229c-.07-.062-.16-.111-.271-.146s-.248-.052-.411-.052c-.257,0-.51.029-.759.088-.25.059-.491.141-.726.246v-.834c.209-.083.449-.151.721-.205.272-.055.556-.081.85-.081.322,0,.599.03.83.092.23.062.421.153.57.275.15.123.261.276.332.46s.106.398.106.644v2.969h-.894Zm-.149-1.921h-.638c-.177,0-.326.018-.449.052s-.223.081-.3.141c-.076.061-.133.13-.169.208-.035.078-.053.162-.053.25,0,.177.057.312.171.404s.27.139.466.139c.146,0,.297-.053.454-.158.156-.105.329-.256.518-.453v-.582Z"/>
      <path class="uuid-9e88481a-2290-4ca3-9277-37674b5f0337" d="m151.57,291.893c-.188.043-.378.077-.568.103-.191.026-.372.039-.544.039-.285,0-.53-.03-.737-.09-.207-.061-.378-.151-.514-.274-.135-.122-.235-.278-.299-.468-.064-.189-.097-.416-.097-.678v-2.122h-1.168v-.812h1.168v-1.112l1.069-.278v1.391h1.689v.812h-1.689v2.045c0,.248.058.436.171.562.114.127.306.19.573.19.171,0,.338-.015.501-.043.162-.028.311-.062.444-.099v.834Z"/>
      <path class="uuid-9e88481a-2290-4ca3-9277-37674b5f0337" d="m156.991,289.43c0,.071-.002.164-.006.278-.005.114-.011.221-.02.321h-2.857c0,.19.029.358.088.504s.141.268.248.366c.106.099.235.173.385.225.149.051.315.077.498.077.211,0,.438-.017.679-.05.24-.032.49-.086.75-.16v.83c-.111.031-.232.06-.363.085-.131.026-.266.049-.402.068-.137.021-.275.035-.415.045-.14.011-.274.016-.406.016-.331,0-.627-.047-.89-.142-.262-.094-.484-.233-.667-.417s-.322-.411-.419-.682c-.098-.271-.146-.585-.146-.941,0-.354.048-.675.146-.965.097-.289.233-.537.41-.744s.392-.366.644-.479c.253-.113.534-.169.845-.169.309,0,.581.047.817.143s.435.229.595.4c.159.171.28.375.363.611.083.237.124.496.124.778Zm-1.061-.149c.003-.171-.019-.32-.064-.447s-.107-.231-.186-.314c-.079-.082-.17-.144-.274-.184-.104-.04-.216-.06-.336-.06-.262,0-.478.088-.646.263-.168.176-.268.423-.299.742h1.805Z"/>
      <path class="uuid-9e88481a-2290-4ca3-9277-37674b5f0337" d="m159.151,292.856h-1.014l2.986-6.964h1.018l-2.99,6.964Z"/>
      <path class="uuid-9e88481a-2290-4ca3-9277-37674b5f0337" d="m166.369,291.936l-.025-.569c-.092.098-.188.187-.287.268s-.209.152-.329.212-.25.106-.392.139c-.141.033-.296.05-.464.05-.223,0-.418-.033-.586-.099-.169-.065-.31-.157-.424-.273-.114-.117-.2-.259-.259-.424s-.088-.348-.088-.548c0-.205.044-.395.131-.568s.22-.323.397-.449c.179-.125.401-.224.668-.295s.579-.107.938-.107h.569v-.261c0-.111-.017-.212-.048-.302s-.082-.166-.151-.229c-.07-.062-.16-.111-.271-.146s-.248-.052-.411-.052c-.257,0-.51.029-.759.088-.25.059-.491.141-.726.246v-.834c.209-.083.449-.151.721-.205.272-.055.556-.081.85-.081.322,0,.599.03.83.092.23.062.421.153.57.275.15.123.261.276.332.46s.106.398.106.644v2.969h-.894Zm-.149-1.921h-.638c-.177,0-.326.018-.449.052s-.223.081-.3.141c-.076.061-.133.13-.169.208-.035.078-.053.162-.053.25,0,.177.057.312.171.404s.27.139.466.139c.146,0,.297-.053.454-.158.156-.105.329-.256.518-.453v-.582Z"/>
      <path class="uuid-9e88481a-2290-4ca3-9277-37674b5f0337" d="m172.763,286.778c-.125-.04-.274-.073-.446-.101-.173-.027-.349-.041-.528-.041-.123,0-.237.017-.343.05-.105.032-.196.084-.273.155s-.138.162-.182.272c-.044.109-.066.243-.066.399v.701h1.707v.813h-1.707v2.908h-1.053v-2.908h-1.262v-.813h1.262v-.658c0-.308.045-.572.135-.794.09-.221.217-.401.381-.543.164-.141.361-.244.593-.31.23-.066.489-.099.774-.099.188,0,.367.012.536.036.17.024.327.054.473.088v.843Z"/>
      <path class="uuid-9e88481a-2290-4ca3-9277-37674b5f0337" d="m178.043,286.778c-.125-.04-.274-.073-.446-.101-.173-.027-.349-.041-.528-.041-.123,0-.237.017-.343.05-.105.032-.196.084-.273.155s-.138.162-.182.272c-.044.109-.066.243-.066.399v.701h1.707v.813h-1.707v2.908h-1.053v-2.908h-1.262v-.813h1.262v-.658c0-.308.045-.572.135-.794.09-.221.217-.401.381-.543.164-.141.361-.244.593-.31.23-.066.489-.099.774-.099.188,0,.367.012.536.036.17.024.327.054.473.088v.843Z"/>
      <path class="uuid-9e88481a-2290-4ca3-9277-37674b5f0337" d="m183.148,289.43c0,.071-.002.164-.006.278-.005.114-.011.221-.02.321h-2.857c0,.19.029.358.088.504s.141.268.248.366c.106.099.235.173.385.225.149.051.315.077.498.077.211,0,.438-.017.679-.05.24-.032.49-.086.75-.16v.83c-.111.031-.232.06-.363.085-.131.026-.266.049-.402.068-.137.021-.275.035-.415.045-.14.011-.274.016-.406.016-.331,0-.627-.047-.89-.142-.262-.094-.484-.233-.667-.417s-.322-.411-.419-.682c-.098-.271-.146-.585-.146-.941,0-.354.048-.675.146-.965.097-.289.233-.537.41-.744s.392-.366.644-.479c.253-.113.534-.169.845-.169.309,0,.581.047.817.143s.435.229.595.4c.159.171.28.375.363.611.083.237.124.496.124.778Zm-1.061-.149c.003-.171-.019-.32-.064-.447s-.107-.231-.186-.314c-.079-.082-.17-.144-.274-.184-.104-.04-.216-.06-.336-.06-.262,0-.478.088-.646.263-.168.176-.268.423-.299.742h1.805Z"/>
      <path class="uuid-9e88481a-2290-4ca3-9277-37674b5f0337" d="m188.098,291.769c-.205.083-.418.145-.637.185-.22.039-.449.06-.689.06-.345,0-.654-.047-.928-.142-.273-.094-.506-.233-.697-.419s-.337-.415-.438-.688c-.102-.273-.152-.591-.152-.949,0-.349.055-.663.165-.945.11-.283.265-.523.464-.724.2-.199.44-.354.721-.462.281-.108.594-.162.939-.162.282,0,.52.015.712.045.192.029.366.067.52.113v1.014c-.177-.089-.368-.157-.575-.205-.207-.049-.402-.073-.588-.073-.194,0-.368.033-.521.099-.154.065-.284.157-.39.273-.105.117-.187.259-.241.426-.056.167-.084.351-.084.55,0,.208.03.395.09.561.06.165.145.306.255.421.109.115.241.204.396.266s.325.092.513.092c.092,0,.188-.007.289-.02s.202-.031.304-.056.201-.052.3-.083c.098-.031.19-.065.275-.103v.928Z"/>
      <path class="uuid-9e88481a-2290-4ca3-9277-37674b5f0337" d="m193.386,291.893c-.188.043-.378.077-.568.103-.191.026-.372.039-.544.039-.285,0-.53-.03-.737-.09-.207-.061-.378-.151-.514-.274-.135-.122-.235-.278-.299-.468-.064-.189-.097-.416-.097-.678v-2.122h-1.168v-.812h1.168v-1.112l1.069-.278v1.391h1.689v.812h-1.689v2.045c0,.248.058.436.171.562.114.127.306.19.573.19.171,0,.338-.015.501-.043.162-.028.311-.062.444-.099v.834Z"/>
    </g>
    <path class="uuid-9e88481a-2290-4ca3-9277-37674b5f0337" d="m132.397,167.797c-.12.18-.18.36-.24.54-.06.18-.18.36-.24.48-.18.24-.36.42-.48.6-.18.12-.36.24-.54.24-.18.06-.36.06-.54,0-.18,0-.42-.12-.6-.24l-1.8-1.14-.66.96-.66-.42.6-1.02-.9-.6.3-1.02,1.2.72.9-1.38.72.42-.96,1.44,1.74,1.08c.24.12.42.18.6.18.12-.06.3-.18.42-.42.12-.12.18-.3.24-.42.06-.18.12-.3.18-.42m-2.28,4.8c0,.24-.06.48-.18.66-.06.18-.18.42-.3.6-.18.3-.42.54-.6.72-.24.18-.48.3-.78.36-.24.06-.48.06-.78,0-.3-.06-.6-.18-.9-.36-.3-.24-.54-.42-.72-.66s-.3-.54-.36-.78c-.06-.3-.06-.6,0-.84.06-.3.18-.6.36-.9.18-.24.3-.42.42-.6.18-.12.3-.24.42-.36l.84.54c-.18.12-.36.24-.48.36-.18.18-.3.3-.36.48-.12.18-.18.3-.24.48,0,.18,0,.36.06.48,0,.18.12.3.18.42.12.18.3.3.42.36.18.12.36.24.54.24.18.06.36.06.48,0,.18,0,.3-.06.48-.18.12-.06.24-.24.3-.36.06-.06.12-.18.18-.24.06-.12.06-.24.12-.3,0-.12.06-.18.06-.3.06-.12.06-.18.06-.3l.78.48Zm-5.34,3.72c-.12-.06-.24-.12-.36-.18h-.42c-.06,0-.18.06-.3.12-.06.06-.12.18-.18.24-.18.24-.24.48-.18.72.06.24.24.42.48.66l.96-1.56Zm.72-.78c.06.06.12.06.24.12.06.12.18.18.24.24l-1.5,2.4c.12.06.3.18.42.18.18.06.3,0,.48,0,.12-.06.24-.12.36-.24.12-.06.24-.18.36-.36.12-.18.24-.36.3-.6.12-.18.24-.42.3-.72l.66.48c0,.12-.06.18-.12.36,0,.12-.06.24-.12.36s-.12.24-.18.36c-.06.12-.18.24-.24.36-.18.3-.36.48-.6.66-.18.18-.42.3-.72.36-.24.06-.48.06-.78-.06-.3-.06-.54-.18-.84-.36-.3-.18-.6-.42-.78-.66s-.3-.48-.36-.72c-.12-.24-.12-.54-.06-.78,0-.3.12-.54.3-.84.18-.24.36-.48.54-.6.24-.12.42-.24.66-.3.24,0,.48,0,.72.06.24.06.48.12.72.3Zm-4.98,2.88c-.12.06-.24.18-.36.3-.06.12-.18.3-.3.42-.06.12-.12.24-.12.3-.06.12-.06.24,0,.36,0,.06.06.18.12.3.06.06.18.18.3.24l.6.36.9-1.38.66.42-.9,1.44,2.46,1.56-.6.9-2.4-1.56-.72,1.02-.66-.42.66-1.08-.54-.36c-.24-.12-.48-.3-.6-.54-.12-.18-.24-.36-.24-.6-.06-.18,0-.42.06-.66.06-.24.18-.48.3-.72.12-.12.24-.3.36-.42.06-.12.18-.24.3-.36l.72.48Zm-2.88,4.44l-.3.3c-.12.12-.24.3-.3.42l-.18.36v.3c0,.12.06.18.12.3.06.06.18.18.3.24l.6.42.9-1.44.72.42-.9,1.44,2.4,1.56-.54.9-2.46-1.56-.66,1.02-.72-.42.72-1.08-.6-.36c-.24-.12-.42-.3-.54-.54-.18-.18-.24-.36-.3-.6,0-.18,0-.42.06-.66.06-.24.18-.48.36-.72.12-.12.18-.3.3-.42s.24-.24.36-.36l.66.48Zm-.78,7.26l-.36.54c-.06.12-.12.3-.18.42s-.06.18-.06.3c.06.12.06.18.12.24.06.06.12.12.18.18.12.12.3.12.42.06.12,0,.24-.12.36-.3.06-.12.12-.24.12-.48,0-.18-.06-.42-.12-.66l-.48-.3Zm1.68.9l-.48-.3c.06.12.06.3.06.42.06.12.06.24,0,.36,0,.12,0,.3-.06.42s-.12.3-.24.42c-.12.18-.24.3-.36.42-.18.12-.3.18-.48.24h-.48c-.18-.06-.36-.12-.54-.24s-.3-.24-.36-.42c-.12-.18-.18-.36-.18-.6,0-.18,0-.42.12-.72.06-.24.18-.54.42-.84l.3-.48-.24-.12c-.12-.06-.18-.12-.3-.12-.06-.06-.18-.06-.24,0-.12,0-.18.06-.3.12-.06.12-.18.18-.24.36-.12.18-.24.42-.36.66-.06.24-.12.48-.18.72l-.66-.42c0-.24.06-.48.18-.72.12-.24.24-.48.42-.78.18-.24.3-.48.48-.6.18-.18.36-.3.54-.36s.42-.06.6,0c.18,0,.36.12.6.24l2.46,1.56-.48.78Zm-3.06,6.6l-.6.84-4.26-6.3.6-.84,4.26,6.3Zm-4.8.78c-.12-.12-.24-.18-.36-.18-.18-.06-.3-.06-.42-.06-.06.06-.18.06-.3.18-.06.06-.12.12-.18.24-.18.18-.24.42-.18.66.06.24.24.48.48.66l.96-1.5Zm.72-.84c.06.06.12.12.24.18.06.06.18.12.24.18l-1.5,2.4c.12.12.3.18.42.18.18.06.3.06.48,0l.36-.18c.12-.12.24-.24.36-.42.12-.18.24-.36.3-.6.12-.18.24-.42.3-.72l.66.48c0,.12-.06.24-.12.36,0,.12-.06.24-.12.36-.06.12-.12.24-.18.36s-.18.24-.24.36c-.18.3-.36.54-.6.66-.18.18-.42.3-.72.36-.24.06-.48.06-.78,0-.3-.06-.54-.18-.84-.42-.3-.18-.6-.36-.78-.6-.18-.24-.3-.48-.36-.78-.12-.24-.12-.54-.06-.78,0-.3.12-.54.3-.84.18-.24.36-.42.54-.6.24-.12.42-.24.66-.24.24-.06.48-.06.72,0,.24.06.48.18.72.3Zm-.84,5.88c-.06.18-.12.36-.24.54-.06.18-.18.36-.24.48-.18.24-.3.42-.48.6-.18.12-.36.24-.48.3h-.6c-.18-.06-.36-.18-.6-.3l-1.8-1.14-.6.96-.72-.42.66-1.02-.96-.6.36-1.02,1.14.72.9-1.38.72.42-.9,1.44,1.68,1.08c.24.12.42.18.6.18.18-.06.3-.18.48-.42.06-.12.18-.24.24-.42.06-.18.12-.3.12-.42l.72.42Zm-4.92,4.26l-.36.54c-.12.12-.18.3-.18.42-.06.12-.06.24-.06.3,0,.12,0,.18.06.24.06.12.12.18.18.18.18.12.3.12.42.12.18-.06.3-.18.42-.36.06-.12.12-.24.06-.42,0-.24,0-.42-.06-.72l-.48-.3Zm1.68.9l-.48-.3c0,.18.06.3.06.42v.36c0,.18-.06.3-.12.42-.06.12-.12.3-.18.42-.12.18-.24.36-.42.42-.12.12-.3.18-.42.24h-.54c-.18-.06-.3-.12-.48-.24-.18-.12-.3-.24-.42-.42s-.18-.36-.18-.6c0-.18.06-.42.12-.72.06-.24.24-.54.42-.84l.3-.48-.24-.12c-.06-.06-.18-.12-.24-.12h-.3c-.06,0-.18.06-.24.12-.12.12-.18.24-.3.36-.12.18-.24.42-.3.66-.12.24-.18.48-.18.78l-.72-.48c.06-.24.12-.48.24-.72.06-.24.18-.48.36-.72.18-.3.36-.54.54-.66.18-.18.36-.3.54-.36s.36-.06.54,0c.18,0,.42.12.6.24l2.52,1.62-.48.72Zm-3,4.68l-.6.96-4.62-.84.66-1.02,2.52.6.84.18-.54-.6-1.56-2.16.6-.9,2.7,3.78Zm-6.3,3.36l-.66,1.02-.72-.48,1.26-1.92,2.94,1.92.72-1.08.66.48-1.98,3.12-.72-.48.78-1.14-2.28-1.44Zm-1.08-2.1c.06.06.12.12.18.18.06.12.12.18.12.24v.3c0,.06-.06.18-.12.24s-.12.12-.18.18c-.06.06-.12.12-.24.12h-.24c-.12,0-.18-.06-.24-.12-.12,0-.18-.06-.24-.18,0-.06-.06-.12-.06-.24-.06-.06-.06-.12-.06-.24.06-.06.06-.18.12-.24.06-.12.12-.18.18-.24.12,0,.18-.06.24-.06.12-.06.18-.06.3,0,.06,0,.18,0,.24.06Zm2.34,6.54c-.06.18-.12.36-.18.48-.12.18-.18.36-.3.48-.12.24-.3.48-.48.6-.12.12-.3.24-.48.3-.18.06-.36,0-.54,0-.24-.06-.42-.18-.66-.3l-1.74-1.14-.66.96-.66-.42.6-.96-.9-.6.3-1.08,1.2.78.9-1.44.66.42-.9,1.44,1.74,1.08c.18.12.36.18.54.18.18-.06.36-.18.48-.36.12-.18.18-.3.24-.48.06-.12.12-.3.18-.42l.66.48Zm-2.94,4.38c-.06.18-.12.42-.18.6-.06.24-.18.42-.3.6-.18.3-.42.54-.66.72-.18.18-.48.3-.72.36-.24.06-.54.06-.78,0-.3-.06-.6-.18-.9-.36s-.54-.42-.72-.66c-.18-.24-.3-.48-.36-.78-.06-.3-.06-.54,0-.84.06-.3.18-.6.36-.9.18-.24.3-.42.42-.6l.36-.36.9.54c-.18.12-.36.24-.48.42-.18.12-.3.3-.42.42-.06.18-.12.36-.18.48v.48c.06.18.12.3.24.48.12.12.24.24.42.36.18.06.36.18.54.18.18.06.3.06.48.06.18-.06.3-.12.42-.24.18-.06.3-.18.36-.36.06-.06.12-.18.18-.24,0-.12.06-.18.12-.3,0-.12.06-.18.06-.3s.06-.18.06-.3l.78.54Zm-4.8,4.2l-.36.54c-.06.18-.12.3-.18.42-.06.12-.06.24-.06.36.06.06.06.18.12.24s.12.12.18.18c.12.06.3.12.42.06.12-.06.24-.12.36-.3.06-.12.12-.3.12-.48s-.06-.42-.12-.66l-.48-.36Zm1.68.96l-.48-.3c.06.12.06.24.06.36.06.12.06.3,0,.42,0,.12,0,.24-.06.36-.06.18-.12.3-.24.42-.12.24-.24.36-.36.48-.18.12-.3.18-.48.18-.18.06-.3.06-.48,0s-.36-.12-.54-.24c-.18-.06-.3-.24-.36-.42-.12-.12-.18-.36-.18-.54,0-.24,0-.48.12-.72.06-.3.18-.54.42-.84l.3-.48-.24-.18c-.12-.06-.18-.06-.3-.12h-.24c-.12.06-.18.12-.3.18-.06.06-.18.18-.24.3-.12.24-.24.48-.36.72-.06.24-.12.48-.18.72l-.66-.42c0-.24.06-.48.18-.72.12-.3.24-.54.42-.78.18-.3.3-.48.48-.66s.36-.24.54-.3c.18-.06.42-.12.6-.06s.36.12.6.24l2.46,1.62-.48.78Z"/>
    <g>
      <path class="uuid-3bf065e9-00b9-4785-bebb-6addc59577cb" d="m284.721,347.197l-.164-5.066-.062-2.022-.433,1.371-.994,3.051h-1.056l-.897-3.051-.377-1.371-.048,1.981-.151,5.107h-1.433l.438-8.96h1.906l.788,2.543.377,1.433.377-1.351.83-2.625h1.939l.446,8.96h-1.488Z"/>
      <path class="uuid-3bf065e9-00b9-4785-bebb-6addc59577cb" d="m293.888,343.18c0,.114-.003.263-.01.445-.007.184-.018.354-.031.515h-4.579c0,.306.047.576.141.809.094.233.227.429.397.586.172.158.377.278.617.36s.506.123.799.123c.338,0,.7-.026,1.086-.078.387-.053.787-.139,1.203-.258v1.33c-.178.051-.372.096-.582.138-.211.041-.426.077-.645.109-.22.032-.441.056-.665.072-.224.016-.441.023-.651.023-.53,0-1.006-.075-1.426-.226-.421-.151-.777-.374-1.069-.669-.293-.295-.517-.659-.672-1.094-.155-.434-.233-.937-.233-1.508,0-.566.078-1.082.233-1.546s.374-.861.658-1.192c.283-.332.627-.588,1.031-.769s.855-.271,1.354-.271c.493,0,.93.076,1.309.229.38.153.697.367.953.642.256.273.45.601.583.979.133.38.198.796.198,1.248Zm-1.699-.24c.004-.273-.03-.513-.104-.716s-.172-.371-.298-.504-.272-.23-.438-.295c-.167-.064-.347-.096-.539-.096-.42,0-.765.141-1.035.421-.27.281-.429.678-.479,1.189h2.894Z"/>
      <path class="uuid-3bf065e9-00b9-4785-bebb-6addc59577cb" d="m301.637,347.129c-.302.068-.606.123-.912.164-.307.041-.597.062-.871.062-.457,0-.851-.048-1.183-.144-.331-.096-.605-.242-.822-.438-.217-.197-.377-.447-.479-.751-.104-.304-.154-.666-.154-1.087v-3.4h-1.872v-1.303h1.872v-1.782l1.714-.445v2.228h2.708v1.303h-2.708v3.277c0,.397.091.698.273.901.184.203.489.305.919.305.274,0,.542-.022.802-.068.261-.046.499-.098.714-.157v1.337Z"/>
      <path class="uuid-3bf065e9-00b9-4785-bebb-6addc59577cb" d="m308.329,347.197l-.042-.912c-.146.155-.299.298-.459.429-.16.13-.336.243-.527.339-.192.097-.401.171-.628.223-.226.053-.474.079-.743.079-.357,0-.67-.053-.939-.157-.27-.105-.496-.252-.679-.439-.183-.187-.321-.413-.415-.679-.094-.265-.141-.557-.141-.877,0-.329.069-.633.209-.912.14-.278.353-.519.638-.72.286-.201.643-.358,1.069-.473.428-.114.929-.172,1.505-.172h.912v-.418c0-.178-.025-.339-.075-.483-.051-.144-.132-.266-.244-.366-.111-.101-.257-.179-.435-.233-.179-.055-.398-.082-.658-.082-.412,0-.817.047-1.217.141-.4.094-.788.225-1.162.394v-1.337c.333-.132.719-.242,1.155-.329.436-.086.89-.13,1.36-.13.517,0,.96.049,1.33.147s.675.246.915.442.417.442.531.736c.114.295.172.639.172,1.032v4.758h-1.433Zm-.24-3.078h-1.021c-.283,0-.523.027-.72.082-.197.055-.356.13-.48.227-.123.096-.213.206-.271.332s-.086.26-.086.401c0,.283.092.499.274.647s.432.223.747.223c.233,0,.476-.084.727-.253.252-.169.528-.412.83-.728v-.932Z"/>
      <path class="uuid-3bf065e9-00b9-4785-bebb-6addc59577cb" d="m318.298,343.591c0,.641-.09,1.193-.271,1.659s-.432.854-.754,1.162-.703.537-1.142.686c-.439.148-.917.223-1.433.223-.508,0-.979-.037-1.416-.113-.437-.075-.854-.177-1.251-.305v-9.393h1.673v2.276l-.069,1.371c.252-.324.546-.585.882-.781s.738-.295,1.21-.295c.411,0,.776.082,1.097.247.319.164.588.398.806.702.217.305.383.672.497,1.104.113.433.171.918.171,1.457Zm-1.755.068c0-.384-.027-.71-.082-.979-.055-.271-.134-.491-.236-.665-.104-.174-.229-.301-.378-.381s-.318-.12-.511-.12c-.283,0-.554.114-.812.343-.259.229-.531.539-.819.933v3.044c.132.05.296.091.49.123.193.032.392.048.593.048.265,0,.506-.055.723-.164.218-.11.402-.266.556-.467.153-.2.271-.446.354-.736.082-.29.123-.616.123-.978Z"/>
      <path class="uuid-3bf065e9-00b9-4785-bebb-6addc59577cb" d="m326.375,343.659c0,.549-.078,1.051-.233,1.505-.155.455-.379.845-.672,1.169-.292.325-.65.576-1.076.754-.425.179-.909.268-1.453.268-.517,0-.978-.075-1.385-.226-.407-.151-.752-.376-1.035-.676-.283-.299-.5-.674-.651-1.124-.15-.45-.227-.975-.227-1.573,0-.553.079-1.056.237-1.509.157-.452.384-.838.679-1.158.294-.32.654-.568,1.079-.744.426-.176.905-.264,1.439-.264.521,0,.985.076,1.393.229.406.153.751.381,1.035.683.283.302.499.675.647,1.12.148.446.223.961.223,1.546Zm-1.741.042c0-.723-.136-1.266-.408-1.629-.271-.363-.673-.545-1.203-.545-.292,0-.541.058-.747.172-.205.114-.375.271-.507.47-.133.198-.23.431-.292.695-.062.266-.092.549-.092.851,0,.727.146,1.273.438,1.642.292.368.692.552,1.199.552.279,0,.521-.056.727-.168.206-.112.373-.268.501-.466.128-.199.224-.434.288-.703.063-.27.096-.56.096-.87Z"/>
      <path class="uuid-3bf065e9-00b9-4785-bebb-6addc59577cb" d="m330.421,338.812h-1.967v-1.303h3.681v8.385h2.009v1.303h-5.93v-1.303h2.207v-7.082Z"/>
      <path class="uuid-3bf065e9-00b9-4785-bebb-6addc59577cb" d="m338.491,341.534h-1.967v-1.303h3.681v5.663h2.009v1.303h-5.93v-1.303h2.207v-4.36Zm1.852-3.208c0,.15-.027.292-.082.425-.056.133-.132.248-.23.347-.098.098-.213.176-.346.232-.133.058-.276.086-.432.086-.156,0-.301-.028-.436-.086-.135-.057-.252-.135-.35-.232-.099-.099-.175-.214-.229-.347-.056-.133-.083-.274-.083-.425,0-.151.027-.293.083-.425.055-.133.131-.249.229-.35.098-.101.215-.18.35-.237.135-.057.279-.085.436-.085.155,0,.299.028.432.085.133.058.248.137.346.237.099.101.175.217.23.35.055.132.082.273.082.425Z"/>
      <path class="uuid-3bf065e9-00b9-4785-bebb-6addc59577cb" d="m350.059,345.147c0,.397-.089.736-.265,1.018s-.409.51-.699.686-.619.305-.987.384c-.367.08-.743.12-1.127.12-.513,0-.974-.023-1.385-.071-.412-.049-.801-.118-1.166-.21v-1.508c.43.179.858.308,1.285.388.428.08.831.119,1.21.119.439,0,.767-.069.984-.209.217-.139.325-.32.325-.545,0-.104-.022-.201-.068-.288-.046-.086-.132-.17-.257-.25-.126-.08-.303-.162-.531-.247-.229-.084-.528-.179-.898-.284-.343-.096-.644-.204-.901-.325s-.472-.265-.641-.429c-.17-.165-.296-.355-.381-.572s-.127-.472-.127-.765c0-.283.064-.551.192-.802.128-.252.318-.472.572-.662.254-.189.57-.339.949-.449.38-.109.823-.164,1.33-.164.438,0,.827.022,1.165.068.339.046.638.096.898.151v1.364c-.397-.128-.771-.219-1.121-.271-.35-.052-.695-.078-1.038-.078s-.618.062-.826.185-.312.295-.312.515c0,.104.021.198.062.28.041.083.122.163.243.24.121.078.29.159.507.243.217.085.504.178.86.278.402.114.74.236,1.015.366.274.131.495.278.662.442.166.165.286.352.359.562.073.21.11.45.11.72Z"/>
      <path class="uuid-3bf065e9-00b9-4785-bebb-6addc59577cb" d="m357.298,347.197v-4.744c0-.174-.005-.326-.014-.456s-.027-.238-.055-.325-.067-.152-.12-.195c-.053-.044-.124-.065-.216-.065-.142,0-.281.096-.418.288-.138.191-.293.519-.467.98v4.518h-1.433v-4.744c0-.174-.005-.326-.014-.456s-.027-.238-.055-.325-.068-.152-.123-.195c-.056-.044-.128-.065-.22-.065-.119,0-.251.096-.397.288-.146.191-.309.519-.487.98v4.518h-1.446v-6.966h1.241l.027,1.015c.101-.205.201-.381.302-.527s.208-.267.322-.36.236-.161.366-.202c.131-.041.278-.062.442-.062.389,0,.685.102.888.305.203.204.319.486.347.847.109-.205.218-.381.325-.527s.22-.267.336-.36.242-.161.377-.202.285-.062.449-.062c.507,0,.882.177,1.124.531s.363.879.363,1.573v4.998h-1.446Z"/>
    </g>
    <g>
      <path class="uuid-3bf065e9-00b9-4785-bebb-6addc59577cb" d="m34.58,44.017l-.165-5.066-.062-2.022-.432,1.371-.994,3.051h-1.056l-.898-3.051-.377-1.371-.048,1.981-.151,5.107h-1.433l.438-8.96h1.906l.789,2.543.377,1.433.377-1.35.83-2.626h1.94l.445,8.96h-1.487Z"/>
      <path class="uuid-3bf065e9-00b9-4785-bebb-6addc59577cb" d="m43.747,40c0,.114-.003.263-.01.446-.007.183-.017.354-.031.514h-4.58c0,.307.047.576.141.809.094.233.226.429.397.587.171.157.377.277.617.359.24.082.506.124.798.124.338,0,.701-.026,1.087-.079s.787-.139,1.203-.257v1.329c-.178.051-.373.097-.583.138-.21.041-.425.077-.644.109-.22.032-.441.056-.665.072-.224.016-.441.023-.651.023-.53,0-1.005-.075-1.426-.226-.421-.151-.777-.374-1.07-.669s-.516-.659-.672-1.093c-.155-.435-.233-.938-.233-1.509,0-.566.078-1.082.233-1.546.156-.464.375-.861.658-1.192.284-.331.627-.588,1.032-.768.405-.181.856-.271,1.354-.271.494,0,.93.077,1.31.229.379.153.697.367.953.642s.45.601.583.98c.132.379.199.795.199,1.247Zm-1.7-.239c.004-.274-.03-.514-.103-.717-.073-.203-.172-.371-.298-.504-.126-.133-.272-.23-.439-.295-.167-.063-.346-.096-.538-.096-.42,0-.766.141-1.035.422-.27.28-.43.677-.48,1.189h2.893Z"/>
      <path class="uuid-3bf065e9-00b9-4785-bebb-6addc59577cb" d="m51.495,43.949c-.302.068-.605.123-.912.164s-.597.062-.871.062c-.457,0-.852-.048-1.183-.144-.332-.096-.606-.242-.823-.438-.217-.196-.377-.447-.48-.751-.103-.304-.154-.666-.154-1.087v-3.4h-1.872v-1.302h1.872v-1.783l1.714-.445v2.229h2.708v1.302h-2.708v3.277c0,.397.091.698.274.901.183.203.489.306.918.306.274,0,.542-.023.802-.069.26-.045.498-.098.713-.157v1.337Z"/>
      <path class="uuid-3bf065e9-00b9-4785-bebb-6addc59577cb" d="m58.187,44.017l-.041-.912c-.146.155-.299.299-.459.429s-.336.243-.528.34c-.192.096-.401.17-.627.223-.226.052-.474.078-.744.078-.356,0-.669-.052-.939-.157-.27-.105-.496-.251-.679-.438-.183-.188-.321-.414-.415-.679-.094-.266-.141-.558-.141-.878,0-.329.07-.633.209-.911.139-.279.352-.52.637-.721.286-.2.642-.358,1.07-.473.427-.114.929-.171,1.504-.171h.912v-.419c0-.178-.025-.339-.076-.483-.05-.144-.131-.266-.243-.366-.112-.101-.257-.179-.436-.233s-.397-.082-.658-.082c-.411,0-.817.047-1.217.141s-.787.225-1.162.394v-1.336c.333-.133.718-.242,1.155-.329s.89-.131,1.361-.131c.517,0,.96.05,1.33.147.37.099.675.246.915.442.24.196.417.442.531.737.114.294.171.639.171,1.031v4.758h-1.433Zm-.24-3.078h-1.021c-.284,0-.523.027-.72.082-.196.055-.356.131-.479.227-.124.096-.214.207-.271.332-.057.126-.085.26-.085.401,0,.283.091.499.274.647.183.149.432.224.748.224.233,0,.475-.085.727-.254.251-.169.528-.411.83-.727v-.933Z"/>
      <path class="uuid-3bf065e9-00b9-4785-bebb-6addc59577cb" d="m68.156,40.411c0,.641-.09,1.193-.271,1.659-.181.467-.432.854-.754,1.162s-.703.537-1.142.686c-.438.148-.916.223-1.433.223-.507,0-.979-.037-1.416-.112-.437-.076-.854-.178-1.251-.306v-9.392h1.672v2.275l-.068,1.371c.251-.324.545-.585.881-.781s.739-.295,1.21-.295c.412,0,.777.082,1.097.247.32.164.588.398.805.703.217.304.383.671.497,1.104.114.432.171.917.171,1.456Zm-1.755.069c0-.384-.027-.711-.083-.98-.055-.27-.133-.491-.236-.665s-.229-.301-.377-.381-.319-.12-.511-.12c-.284,0-.554.114-.812.343s-.531.54-.819.933v3.044c.133.051.296.092.49.123.194.032.392.049.593.049.265,0,.506-.056.723-.165.217-.109.402-.265.555-.466s.271-.447.353-.737c.083-.29.124-.616.124-.977Z"/>
      <path class="uuid-3bf065e9-00b9-4785-bebb-6addc59577cb" d="m76.233,40.48c0,.548-.078,1.05-.233,1.505-.156.454-.379.844-.672,1.168-.292.325-.651.576-1.076.755-.425.178-.91.267-1.454.267-.517,0-.978-.075-1.385-.226-.407-.151-.752-.376-1.035-.676-.283-.299-.5-.674-.651-1.124s-.226-.975-.226-1.573c0-.553.079-1.056.236-1.508.158-.453.384-.839.679-1.159.295-.319.655-.567,1.08-.743.425-.177.905-.265,1.439-.265.521,0,.985.077,1.392.229.407.153.752.381,1.035.683s.5.675.648,1.121c.148.445.223.961.223,1.546Zm-1.741.041c0-.723-.136-1.265-.408-1.628-.272-.364-.673-.546-1.203-.546-.293,0-.542.058-.748.172s-.375.271-.507.47c-.132.198-.229.431-.291.695-.062.266-.093.549-.093.851,0,.727.146,1.273.439,1.642.292.368.692.552,1.2.552.278,0,.521-.056.727-.168.206-.111.373-.268.5-.466.128-.199.224-.433.288-.703.064-.27.096-.56.096-.87Z"/>
      <path class="uuid-3bf065e9-00b9-4785-bebb-6addc59577cb" d="m80.279,35.634h-1.968v-1.303h3.682v8.384h2.008v1.303h-5.93v-1.303h2.208v-7.081Z"/>
      <path class="uuid-3bf065e9-00b9-4785-bebb-6addc59577cb" d="m88.35,38.354h-1.968v-1.302h3.682v5.662h2.008v1.303h-5.93v-1.303h2.208v-4.36Zm1.851-3.208c0,.151-.027.293-.082.425-.055.133-.131.248-.229.347-.099.099-.214.176-.346.233-.133.057-.277.085-.432.085s-.3-.028-.435-.085c-.135-.058-.251-.135-.35-.233-.099-.099-.175-.214-.23-.347-.055-.132-.082-.273-.082-.425,0-.15.027-.292.082-.425.055-.133.131-.249.23-.35.098-.101.214-.18.35-.236.135-.058.28-.086.435-.086s.299.028.432.086c.132.057.248.136.346.236.098.101.175.217.229.35s.082.274.082.425Z"/>
      <path class="uuid-3bf065e9-00b9-4785-bebb-6addc59577cb" d="m99.916,41.968c0,.397-.088.737-.264,1.018-.176.281-.409.51-.7.686-.29.177-.619.305-.987.385-.368.079-.744.119-1.128.119-.512,0-.974-.023-1.385-.071s-.8-.118-1.166-.209v-1.509c.43.179.858.308,1.286.388.427.08.831.12,1.21.12.438,0,.767-.07.984-.209.217-.14.325-.321.325-.545,0-.105-.023-.201-.068-.288-.046-.087-.131-.171-.257-.251-.126-.079-.303-.162-.532-.246-.229-.085-.528-.18-.898-.285-.343-.096-.643-.204-.901-.325s-.472-.264-.641-.429c-.169-.164-.296-.355-.38-.572s-.127-.472-.127-.765c0-.283.064-.551.192-.802s.319-.472.573-.661c.253-.19.57-.34.949-.449.379-.11.823-.165,1.33-.165.439,0,.827.023,1.166.068.338.046.638.097.898.151v1.364c-.397-.128-.771-.219-1.121-.271-.35-.053-.696-.079-1.039-.079s-.618.062-.826.185c-.208.124-.312.295-.312.515,0,.105.021.198.062.281.041.082.122.162.244.239.121.078.29.159.507.244.217.084.503.177.86.277.402.114.74.236,1.014.366.274.131.495.278.662.442.167.165.287.353.36.562.073.21.11.45.11.72Z"/>
      <path class="uuid-3bf065e9-00b9-4785-bebb-6addc59577cb" d="m107.157,44.017v-4.744c0-.174-.004-.325-.014-.456-.009-.13-.027-.238-.055-.325s-.067-.152-.12-.195c-.053-.044-.125-.065-.216-.065-.142,0-.281.096-.418.288-.137.192-.292.519-.466.98v4.518h-1.433v-4.744c0-.174-.004-.325-.014-.456-.009-.13-.027-.238-.055-.325s-.068-.152-.124-.195c-.055-.044-.128-.065-.219-.065-.119,0-.251.096-.397.288-.146.192-.309.519-.487.98v4.518h-1.447v-6.965h1.241l.027,1.015c.101-.206.201-.382.302-.528.1-.146.208-.266.322-.359s.237-.161.367-.203c.13-.041.277-.062.442-.062.389,0,.685.102.888.306.204.203.319.485.346.847.11-.206.218-.382.326-.528s.22-.266.336-.359c.117-.094.242-.161.377-.203.135-.041.285-.062.449-.062.507,0,.882.178,1.125.531.242.354.363.879.363,1.573v4.998h-1.447Z"/>
    </g>
    <polyline class="uuid-f4d4168c-025f-4950-bd84-446222f1a633" points="50.017 59.737 53.797 59.737 53.797 50.737 61.297 50.737 61.297 59.737 65.077 59.737 57.517 67.297"/>
    <polygon class="uuid-704f332c-b875-462a-8ea7-cdd6209eac1f" points="50.017 59.737 53.797 59.737 53.797 50.737 61.297 50.737 61.297 59.737 65.077 59.737 57.517 67.297 50.017 59.737"/>
    <polyline class="uuid-f4d4168c-025f-4950-bd84-446222f1a633" points="91.657 58.237 87.877 58.237 87.877 67.297 80.377 67.297 80.377 58.237 76.657 58.237 84.157 50.737"/>
    <polygon class="uuid-704f332c-b875-462a-8ea7-cdd6209eac1f" points="91.657 58.237 87.877 58.237 87.877 67.297 80.377 67.297 80.377 58.237 76.657 58.237 84.157 50.737 91.657 58.237"/>
    <polyline class="uuid-f4d4168c-025f-4950-bd84-446222f1a633" points="295.176 325.837 298.896 325.837 298.896 316.837 306.456 316.837 306.456 325.837 310.176 325.837 302.676 333.337"/>
    <polygon class="uuid-704f332c-b875-462a-8ea7-cdd6209eac1f" points="295.176 325.837 298.896 325.837 298.896 316.837 306.456 316.837 306.456 325.837 310.176 325.837 302.676 333.337 295.176 325.837"/>
    <polyline class="uuid-f4d4168c-025f-4950-bd84-446222f1a633" points="336.817 324.337 333.037 324.337 333.037 333.337 325.537 333.337 325.537 324.337 321.757 324.337 329.317 316.837"/>
    <polygon class="uuid-704f332c-b875-462a-8ea7-cdd6209eac1f" points="336.817 324.337 333.037 324.337 333.037 333.337 325.537 333.337 325.537 324.337 321.757 324.337 329.317 316.837 336.817 324.337"/>
    <circle class="uuid-c924fc5b-7227-4749-b7f3-c3c1949c780a" cx="68.557" cy="15.757" r="14.88"/>
    <circle class="uuid-c924fc5b-7227-4749-b7f3-c3c1949c780a" cx="318.217" cy="366.517" r="14.88" transform="translate(-142.177 520.251) rotate(-67.5)"/>
  </g>
</svg>